<svg xmlns="http://www.w3.org/2000/svg" width="24" height="20" viewBox="0 0 24 20"><g transform="translate(1 1)"><path d="M19,14.5H16" transform="translate(-1 -3)" fill="none" stroke="#909090" stroke-linecap="round" stroke-linejoin="round" stroke-width="2"/><path d="M5,14.5H7.5" transform="translate(-1 -3)" fill="none" stroke="#909090" stroke-linecap="round" stroke-linejoin="round" stroke-width="2"/><path d="M15.868,3H8.132a2,2,0,0,0-1.715.971L4.558,7.07A1.915,1.915,0,0,1,2.915,8H2.236A1.236,1.236,0,0,0,1,9.236v.075a1.115,1.115,0,0,0,.616,1,1.115,1.115,0,0,1,.29,1.786l-.446.446A1.57,1.57,0,0,0,1,13.65v2.643A1.707,1.707,0,0,0,1.5,17.5,1.707,1.707,0,0,1,2,18.707V19a2,2,0,0,0,2,2H5.5A1.5,1.5,0,0,0,7,19.5,1.5,1.5,0,0,1,8.5,18h7A1.5,1.5,0,0,1,17,19.5,1.5,1.5,0,0,0,18.5,21H20a2,2,0,0,0,2-2v-.293a1.707,1.707,0,0,1,.5-1.207,1.707,1.707,0,0,0,.5-1.207V13.65a1.57,1.57,0,0,0-.46-1.11l-.446-.446a1.115,1.115,0,0,1,.29-1.786,1.115,1.115,0,0,0,.616-1V9.236A1.236,1.236,0,0,0,21.764,8h-.679a1.916,1.916,0,0,1-1.642-.93l-1.859-3.1A2,2,0,0,0,15.868,3Z" transform="translate(-1 -3)" fill="none" stroke="#909090" stroke-width="2"/></g></svg>