<svg xmlns="http://www.w3.org/2000/svg" width="24.104" height="24" viewBox="0 0 24.104 24"><g transform="translate(0.048)"><g fill="none" stroke="#fff" stroke-width="1" opacity="0"><rect width="24" height="24" stroke="none"/><rect x="0.5" y="0.5" width="23" height="23" fill="none"/></g><g transform="translate(0.952 1.78)"><path d="M1,2H3.448a2.047,2.047,0,0,1,2,1.611L6.11,6.628m0,0,1.129,6.245a6.142,6.142,0,0,0,6.033,5.066h2.762a6.14,6.14,0,0,0,5.979-4.8l1.045-4.625a1.54,1.54,0,0,0-1.495-1.884Z" transform="translate(-1 -2)" fill="none" stroke="#fff" stroke-linecap="round" stroke-width="2"/><circle cx="1" cy="1" r="1" transform="translate(6.657 18.439)" fill="none" stroke="#fff" stroke-width="2"/><circle cx="1" cy="1" r="1" transform="translate(18.975 18.439)" fill="none" stroke="#fff" stroke-width="2"/></g></g></svg>