<svg id="Icons_-_Filled_-_Popular_Logos" data-name="Icons - Filled - Popular Logos" xmlns="http://www.w3.org/2000/svg" width="34" height="34" viewBox="0 0 34 34">
  <rect id="Rectangle_4" data-name="Rectangle 4" width="34" height="34" fill="#a0a3bd" opacity="0"/>
  <g id="Instagram" transform="translate(0.014 0.005)">
    <path id="Path_625" data-name="Path 625" d="M17,3.062c4.543,0,5.081.02,6.868.1a9.316,9.316,0,0,1,3.155.584,5.258,5.258,0,0,1,1.953,1.268,5.23,5.23,0,0,1,1.269,1.952,9.357,9.357,0,0,1,.584,3.154c.08,1.793.1,2.331.1,6.867s-.02,5.08-.1,6.867a9.319,9.319,0,0,1-.584,3.155,5.6,5.6,0,0,1-3.221,3.221,9.355,9.355,0,0,1-3.155.584c-1.793.08-2.331.1-6.868.1s-5.081-.02-6.868-.1A9.318,9.318,0,0,1,6.98,30.23a5.258,5.258,0,0,1-1.953-1.268,5.229,5.229,0,0,1-1.269-1.952,9.354,9.354,0,0,1-.584-3.155c-.08-1.793-.1-2.331-.1-6.867s.02-5.08.1-6.867a9.314,9.314,0,0,1,.584-3.154A5.258,5.258,0,0,1,5.028,5.014,5.23,5.23,0,0,1,6.98,3.746a9.356,9.356,0,0,1,3.155-.584C11.922,3.081,12.46,3.062,17,3.062ZM17,0C12.387,0,11.809.02,10,.1A12.425,12.425,0,0,0,5.871.89,8.3,8.3,0,0,0,2.856,2.856,8.33,8.33,0,0,0,.89,5.864,12.457,12.457,0,0,0,.1,9.988C.02,11.808,0,12.385,0,17s.02,5.193.1,7.006a12.422,12.422,0,0,0,.79,4.124,8.3,8.3,0,0,0,1.966,3.015,8.312,8.312,0,0,0,3.009,1.959,12.463,12.463,0,0,0,4.125.79c1.813.08,2.391.1,7.007.1s5.194-.02,7.007-.1a12.428,12.428,0,0,0,4.125-.79A8.686,8.686,0,0,0,33.1,28.138a12.455,12.455,0,0,0,.79-4.124c.08-1.813.1-2.391.1-7.006s-.02-5.193-.1-7.006a12.42,12.42,0,0,0-.79-4.124A7.963,7.963,0,0,0,31.15,2.856,8.311,8.311,0,0,0,28.141.9a12.46,12.46,0,0,0-4.124-.79C22.2.02,21.619,0,17,0Z" fill="#a0a3bd"/>
    <path id="Path_626" data-name="Path 626" d="M14.57,5.836A8.733,8.733,0,1,0,23.3,14.569,8.736,8.736,0,0,0,14.57,5.836Zm0,14.4a5.665,5.665,0,1,1,5.665-5.665A5.666,5.666,0,0,1,14.57,20.234Z" transform="translate(2.433 2.432)" fill="#a0a3bd"/>
    <path id="Path_627" data-name="Path 627" d="M21.047,6.192a2.039,2.039,0,1,1-2.039-2.039A2.039,2.039,0,0,1,21.047,6.192Z" transform="translate(7.074 1.731)" fill="#a0a3bd"/>
  </g>
</svg>
