<svg id="Icons_-_Filled_-_Popular_Logos" data-name="Icons - Filled - Popular Logos" xmlns="http://www.w3.org/2000/svg" width="34" height="34" viewBox="0 0 34 34">
  <rect id="Rectangle_4" data-name="Rectangle 4" width="34" height="34" transform="translate(0)" fill="#a0a3bd" opacity="0"/>
  <path id="Snap" d="M33.959,25.755c-.148-.5-.858-.85-.858-.85l-.176-.093a13.671,13.671,0,0,1-3.113-2.072,10.675,10.675,0,0,1-1.8-2.086,7.931,7.931,0,0,1-1-2.083.719.719,0,0,1,0-.516.849.849,0,0,1,.247-.283c.4-.287,1.041-.71,1.436-.968.342-.226.635-.419.808-.541a3.565,3.565,0,0,0,1.158-1.23,2.15,2.15,0,0,0,.1-1.782,2.034,2.034,0,0,0-2.011-1.3,3.132,3.132,0,0,0-.649.072,10.012,10.012,0,0,0-1.5.491.045.045,0,0,1-.064-.047A31.711,31.711,0,0,0,26.516,8.5a9.881,9.881,0,0,0-.78-3.255A8.727,8.727,0,0,0,24.342,3.13a8.6,8.6,0,0,0-2.2-1.8A10.084,10.084,0,0,0,17,0a10.089,10.089,0,0,0-5.134,1.33,8.874,8.874,0,0,0-3.6,3.918A9.768,9.768,0,0,0,7.488,8.5a31.01,31.01,0,0,0-.021,3.958.048.048,0,0,1-.067.047,10.017,10.017,0,0,0-1.5-.491,3.079,3.079,0,0,0-.649-.072,2.041,2.041,0,0,0-2.011,1.3,2.15,2.15,0,0,0,.1,1.782A3.6,3.6,0,0,0,4.5,16.261c.169.122.466.315.808.541.385.255,1.009.667,1.412.95a.844.844,0,0,1,.272.3.745.745,0,0,1-.007.538,7.958,7.958,0,0,1-.988,2.061,10.572,10.572,0,0,1-1.8,2.086,13.67,13.67,0,0,1-3.112,2.072c-.056.029-.124.061-.194.1,0,0-.706.366-.84.839A1.657,1.657,0,0,0,.9,27.461a9.159,9.159,0,0,0,2.558,1.05c.173.047.328.09.469.133a.939.939,0,0,1,.406.24,1.3,1.3,0,0,1,.176.57,1.689,1.689,0,0,0,.667,1.14,3.514,3.514,0,0,0,1.913.4,10.223,10.223,0,0,1,3.042.47,7.748,7.748,0,0,1,1.616.853,9.025,9.025,0,0,0,10.5-.007,7.841,7.841,0,0,1,1.6-.842A10.228,10.228,0,0,1,26.894,31a3.482,3.482,0,0,0,1.913-.4,1.751,1.751,0,0,0,.681-1.215,1.091,1.091,0,0,1,.162-.491.924.924,0,0,1,.392-.233c.145-.047.307-.09.487-.14a8.987,8.987,0,0,0,2.336-.907C34,26.955,34.078,26.153,33.959,25.755Z" transform="translate(0)" fill="#a0a3bd"/>
</svg>
