<svg xmlns="http://www.w3.org/2000/svg" width="24.222" height="13.5" viewBox="0 0 24.222 13.5"><g transform="translate(1 1)"><path d="M3,15l-.894-.447A2,2,0,0,1,1,12.764v-.878a2,2,0,0,1,1.3-1.873l2.049-.768a3.287,3.287,0,0,0,1.1-.776C6.2,7.736,7.985,6.5,11.5,6.5a7.834,7.834,0,0,1,5.741,2.03A3.65,3.65,0,0,0,19.231,9.6C20.6,9.79,22.67,10.352,23,12a8.507,8.507,0,0,1,.211,2.21c-.038.529-.509.79-1.04.79H21m-5,0H8" transform="translate(-1 -6.5)" fill="none" stroke="#909090" stroke-width="2"/><circle cx="2.5" cy="2.5" r="2.5" transform="translate(2 6.5)" fill="none" stroke="#909090" stroke-width="2"/><circle cx="2.5" cy="2.5" r="2.5" transform="translate(15 6.5)" fill="none" stroke="#909090" stroke-width="2"/></g></svg>