<svg id="Icons_-_Line_-_Industry-Specific" data-name="Icons - Line - Industry-Specific" xmlns="http://www.w3.org/2000/svg" width="24" height="24" viewBox="0 0 24 24">
  <g id="Rectangle_4" data-name="Rectangle 4" fill="none" stroke="#14142b" stroke-width="1" opacity="0">
    <rect width="24" height="24" stroke="none"/>
    <rect x="0.5" y="0.5" width="23" height="23" fill="none"/>
  </g>
  <g id="Medical">
    <path id="Path_614" data-name="Path 614" d="M12,22.5V23M12,5v6" fill="none" stroke="#14142b" stroke-linecap="round" stroke-linejoin="round" stroke-width="2"/>
    <circle id="Ellipse_69" data-name="Ellipse 69" cx="2" cy="2" r="2" transform="translate(10 1)" fill="none" stroke="#14142b" stroke-width="2"/>
    <path id="Path_615" data-name="Path 615" d="M8,7.2A7.112,7.112,0,0,1,5,1H1M16,7.2C18.5,5.5,19,4,19,1h4" fill="none" stroke="#14142b" stroke-linecap="round" stroke-linejoin="round" stroke-width="2"/>
    <path id="Path_616" data-name="Path 616" d="M2,7H3" fill="none" stroke="#14142b" stroke-linecap="round" stroke-linejoin="round" stroke-width="2"/>
    <path id="Path_617" data-name="Path 617" d="M21,7h1" fill="none" stroke="#14142b" stroke-linecap="round" stroke-linejoin="round" stroke-width="2"/>
    <path id="Path_618" data-name="Path 618" d="M8,11H6a2,2,0,0,0-2,2H4a2,2,0,0,0,2,2H16a2,2,0,0,1,2,2h0a2,2,0,0,1-2,2H8" fill="none" stroke="#14142b" stroke-linecap="round" stroke-linejoin="round" stroke-width="2"/>
  </g>
</svg>
