<svg xmlns="http://www.w3.org/2000/svg" width="24" height="24" viewBox="0 0 24 24"><g transform="translate(1 1)"><path d="M12,22.5V23M12,5v6" transform="translate(-1 -1)" fill="none" stroke="#292929" stroke-linecap="round" stroke-linejoin="round" stroke-width="2"/><circle cx="2" cy="2" r="2" transform="translate(9)" fill="none" stroke="#292929" stroke-width="2"/><path d="M8,7.2A7.112,7.112,0,0,1,5,1H1M16,7.2C18.5,5.5,19,4,19,1h4" transform="translate(-1 -1)" fill="none" stroke="#292929" stroke-linecap="round" stroke-linejoin="round" stroke-width="2"/><path d="M2,7H3" transform="translate(-1 -1)" fill="none" stroke="#292929" stroke-linecap="round" stroke-linejoin="round" stroke-width="2"/><path d="M21,7h1" transform="translate(-1 -1)" fill="none" stroke="#292929" stroke-linecap="round" stroke-linejoin="round" stroke-width="2"/><path d="M8,11H6a2,2,0,0,0-2,2H4a2,2,0,0,0,2,2H16a2,2,0,0,1,2,2h0a2,2,0,0,1-2,2H8" transform="translate(-1 -1)" fill="none" stroke="#292929" stroke-linecap="round" stroke-linejoin="round" stroke-width="2"/></g></svg>