<svg xmlns="http://www.w3.org/2000/svg" width="24.102" height="24.347" viewBox="0 0 24.102 24.347">
  <g id="Icons_-_Line_-_General" data-name="Icons - Line - General" transform="translate(0.051 0.048)">
    <g id="Rectangle_4" data-name="Rectangle 4" fill="none" stroke="#14142b" stroke-width="1" opacity="0">
      <rect width="24" height="24" stroke="none"/>
      <rect x="0.5" y="0.5" width="23" height="23" fill="none"/>
    </g>
    <g id="Tag" transform="translate(-0.322 -0.319)">
      <path id="Path_25" data-name="Path 25" d="M11.374,1.274a3.046,3.046,0,0,1,2.275.89L22.481,11a3.046,3.046,0,0,1,0,4.307L15.3,22.481a3.046,3.046,0,0,1-4.307,0L2.164,13.65a3.046,3.046,0,0,1-.89-2.275L1.625,2.6A1.015,1.015,0,0,1,2.6,1.625Z" fill="none" stroke="#14142b" stroke-width="2"/>
      <circle id="Ellipse_9" data-name="Ellipse 9" cx="1" cy="1" r="1" transform="translate(7.239 6.645)" fill="none" stroke="#14142b" stroke-width="2"/>
    </g>
  </g>
</svg>
