<svg xmlns="http://www.w3.org/2000/svg" width="24.002" height="18.003" viewBox="0 0 24.002 18.003"><g transform="translate(1.002 1.001)"><g transform="translate(14.002)"><path d="M15,4V6" transform="translate(-15 -4)" fill="none" stroke="#292929" stroke-linecap="round" stroke-linejoin="round" stroke-width="2"/><path d="M15,11v2" transform="translate(-15 -4)" fill="none" stroke="#292929" stroke-linecap="round" stroke-linejoin="round" stroke-width="2"/><path d="M15,18v2" transform="translate(-15 -4)" fill="none" stroke="#292929" stroke-linecap="round" stroke-linejoin="round" stroke-width="2"/></g><path d="M20,16H2a2,2,0,0,1-2-2V10.83A3,3,0,0,0,2,8a3,3,0,0,0-2-2.83V2A2,2,0,0,1,2,0H20a2,2,0,0,1,2,2V5.174a3,3,0,0,0,0,5.654V14A2,2,0,0,1,20,16Z" transform="translate(-0.002)" fill="none" stroke="#292929" stroke-width="2"/></g></svg>