<svg id="Icons_-_Filled_-_Popular_Logos" data-name="Icons - Filled - Popular Logos" xmlns="http://www.w3.org/2000/svg" width="34" height="34" viewBox="0 0 34 34">
  <rect id="Rectangle_4" data-name="Rectangle 4" width="34" height="34" fill="#a0a3bd" opacity="0"/>
  <path id="Tiktok" d="M29.089,13.755q-.417.04-.836.042a9.076,9.076,0,0,1-7.594-4.1V23.669A10.33,10.33,0,1,1,10.33,13.34c.216,0,.426.019.638.033v5.09a5.3,5.3,0,0,0-.638-.064,5.272,5.272,0,0,0,0,10.544,5.4,5.4,0,0,0,5.484-5.207L15.864,0h4.87a9.071,9.071,0,0,0,2.71,5.567A9.071,9.071,0,0,0,29.094,8.1v5.657" transform="translate(2.453)" fill="#a0a3bd"/>
</svg>
