<?xml version="1.0" standalone="no"?>
<!DOCTYPE svg PUBLIC "-//W3C//DTD SVG 20010904//EN"
 "http://www.w3.org/TR/2001/REC-SVG-20010904/DTD/svg10.dtd">
<svg version="1.0" xmlns="http://www.w3.org/2000/svg"
 width="512.000000pt" height="512.000000pt" viewBox="0 0 512.000000 512.000000"
 preserveAspectRatio="xMidYMid meet">

<g transform="translate(0.000000,512.000000) scale(0.100000,-0.100000)"
fill="#000000" stroke="none">
<path d="M2215 4960 c-587 -47 -1135 -309 -1547 -739 -288 -300 -493 -669
-593 -1066 -55 -219 -69 -342 -69 -595 0 -253 14 -376 69 -595 222 -883 952
-1581 1840 -1760 191 -39 287 -48 500 -48 232 0 399 21 611 78 140 37 320 103
423 155 l63 31 129 -12 c99 -9 154 -9 243 0 333 33 608 163 842 397 187 188
317 434 371 701 24 123 24 386 0 503 -41 195 -121 379 -226 526 l-58 81 -7
111 c-34 567 -285 1117 -697 1530 -378 380 -848 614 -1374 686 -144 19 -382
27 -520 16z m45 -422 l0 -123 122 -122 123 -123 102 102 c57 57 103 107 103
113 0 6 -34 44 -75 85 l-75 74 0 59 0 59 68 -6 c121 -13 314 -56 447 -101 141
-47 245 -92 245 -105 0 -5 -25 -51 -55 -104 -30 -52 -55 -99 -55 -103 0 -10
82 -327 87 -332 1 -2 66 13 143 34 99 27 140 42 140 53 0 8 -12 57 -26 108
l-25 94 27 50 c15 28 30 50 33 50 3 0 47 -30 96 -67 146 -110 337 -307 443
-460 l23 -32 -105 -61 -104 -61 -22 -82 c-12 -45 -32 -120 -45 -167 -13 -46
-23 -86 -22 -87 8 -8 272 -73 281 -70 6 3 20 38 30 78 30 116 39 133 90 162
l46 26 21 -41 c39 -77 91 -224 125 -356 48 -186 49 -181 -38 -133 -144 79
-323 135 -493 153 l-110 13 -62 125 c-159 319 -435 575 -765 709 -114 47 -263
86 -383 102 -138 18 -385 6 -515 -24 -606 -143 -1055 -619 -1156 -1227 -19
-114 -22 -343 -5 -455 94 -623 553 -1113 1177 -1256 83 -19 132 -23 302 -25
l203 -2 50 -72 c101 -147 247 -288 388 -375 33 -21 61 -39 61 -41 0 -17 -341
-96 -472 -110 l-68 -6 0 118 0 119 -125 125 -125 125 -105 -105 -105 -105 80
-80 80 -80 0 -58 c0 -67 11 -64 -151 -41 -138 19 -306 61 -436 110 -85 31
-169 69 -182 80 -2 2 23 47 54 101 32 54 58 106 57 115 -1 19 -81 320 -86 326
-4 3 -278 -67 -284 -73 -2 -2 9 -50 24 -108 29 -112 28 -130 -15 -186 l-18
-24 -74 56 c-106 79 -220 183 -301 274 -79 87 -178 215 -178 229 0 5 42 33 94
62 52 29 98 58 104 65 17 23 94 330 83 336 -18 11 -271 74 -277 69 -3 -3 -17
-52 -32 -108 l-28 -102 -51 -29 -52 -30 -21 48 c-40 89 -87 217 -113 313 -30
107 -67 312 -67 371 l0 39 118 0 117 0 125 125 125 125 -105 105 -105 105 -80
-80 -80 -80 -59 0 -59 0 6 76 c10 112 51 304 92 427 46 140 101 263 116 259 6
-2 54 -27 106 -58 l95 -54 165 44 c90 24 166 46 168 48 5 4 -68 274 -75 282
-3 2 -52 -8 -110 -24 l-105 -28 -47 26 c-27 15 -48 31 -48 36 0 14 99 141 175
226 124 138 367 342 385 324 5 -5 33 -52 63 -104 l55 -95 153 -42 c85 -23 161
-42 170 -42 12 -1 25 31 54 139 20 78 36 142 34 144 -2 2 -51 16 -109 31
l-105 27 -28 50 c-16 28 -26 52 -24 55 15 14 203 88 300 117 151 46 335 82
435 85 l32 1 0 -122z m351 -793 c352 -61 674 -289 843 -597 l36 -65 -57 -12
c-220 -48 -474 -199 -650 -385 -180 -190 -292 -407 -350 -677 -26 -124 -24
-391 4 -519 12 -52 24 -104 29 -114 7 -18 2 -19 -122 -13 -637 28 -1136 554
-1136 1197 0 584 414 1080 988 1184 105 19 311 20 415 1z m1362 -956 c510
-103 872 -568 844 -1083 -15 -280 -128 -521 -332 -714 -144 -135 -312 -225
-507 -269 -98 -22 -327 -22 -424 0 -334 75 -604 290 -746 594 -229 488 -43
1073 430 1352 214 127 486 171 735 120z"/>
<path d="M3627 2483 c-86 -145 -228 -395 -225 -398 1 -1 59 -35 127 -75 143
-82 124 -86 192 38 22 39 42 72 44 72 2 0 22 -33 44 -72 69 -125 49 -121 192
-38 68 40 125 73 127 75 2 2 -55 104 -126 227 l-129 223 -106 3 -105 3 -35
-58z"/>
<path d="M3217 1772 c-19 -31 -78 -133 -131 -225 l-97 -168 32 -57 c18 -31 43
-74 56 -95 l23 -37 258 2 257 3 3 148 3 147 -106 0 c-58 0 -105 4 -105 9 0 5
22 48 49 95 l50 86 -72 41 c-40 23 -98 57 -129 75 l-57 33 -34 -57z"/>
<path d="M4148 1753 l-126 -74 49 -85 c27 -47 49 -90 49 -95 0 -5 -47 -9 -105
-9 l-106 0 3 -147 3 -148 257 -3 258 -2 23 37 c13 21 38 64 56 95 l32 57 -126
218 c-69 120 -129 221 -133 224 -4 3 -64 -27 -134 -68z"/>
</g>
</svg>
