<svg xmlns="http://www.w3.org/2000/svg" width="25.502" height="24" viewBox="0 0 25.502 24"><path d="M11.627-496.474A12.01,12.01,0,0,0,3.9-492.785a11.908,11.908,0,0,0-2.96,5.321,10.239,10.239,0,0,0-.344,2.97,10.24,10.24,0,0,0,.344,2.97,12.038,12.038,0,0,0,9.185,8.785,10.291,10.291,0,0,0,2.5.24,10.741,10.741,0,0,0,3.05-.389,12.6,12.6,0,0,0,2.111-.774l.314-.155.644.06a5.467,5.467,0,0,0,1.213,0,6.645,6.645,0,0,0,4.2-1.982,6.918,6.918,0,0,0,1.852-3.5,8.814,8.814,0,0,0,0-2.511,7.082,7.082,0,0,0-1.128-2.626l-.29-.4-.035-.554a11.914,11.914,0,0,0-3.479-7.637,11.805,11.805,0,0,0-6.859-3.424A15.141,15.141,0,0,0,11.627-496.474Zm.225,2.106v.614l.609.609.614.614.509-.509a4.315,4.315,0,0,0,.514-.564,2.478,2.478,0,0,0-.374-.424l-.374-.369v-.589l.339.03a12.235,12.235,0,0,1,2.231.5,4.108,4.108,0,0,1,1.223.524,4.921,4.921,0,0,1-.275.519,5.12,5.12,0,0,0-.275.514c0,.05.409,1.632.434,1.657a6.275,6.275,0,0,0,.714-.17c.494-.135.7-.21.7-.265a5.264,5.264,0,0,0-.13-.539l-.125-.469.135-.25a.955.955,0,0,1,.165-.25,4.876,4.876,0,0,1,.479.334,11.626,11.626,0,0,1,2.211,2.3l.115.16-.524.3-.519.3-.11.409c-.06.225-.16.6-.225.834a4.458,4.458,0,0,0-.11.434,12.774,12.774,0,0,0,1.4.349,1.1,1.1,0,0,0,.15-.389c.15-.579.195-.664.449-.809l.23-.13.1.2a10.247,10.247,0,0,1,.624,1.777c.24.928.245.9-.19.664a6.782,6.782,0,0,0-2.461-.764l-.549-.065-.309-.624a7.421,7.421,0,0,0-3.819-3.539,8.322,8.322,0,0,0-1.912-.509,9.194,9.194,0,0,0-2.571.12,7.531,7.531,0,0,0-5.77,6.125,9.61,9.61,0,0,0-.025,2.271,7.565,7.565,0,0,0,5.875,6.27,6.08,6.08,0,0,0,1.507.125l1.013.01.25.359a6.892,6.892,0,0,0,1.937,1.872,2.878,2.878,0,0,1,.3.2,11.544,11.544,0,0,1-2.356.549l-.339.03v-1.183l-.624-.624-.624-.624-.524.524-.524.524.4.4.4.4v.29c0,.334.055.319-.754.2a10.86,10.86,0,0,1-2.176-.549,5.685,5.685,0,0,1-.908-.4,4,4,0,0,1,.27-.5,2.577,2.577,0,0,0,.285-.574c0-.095-.4-1.6-.429-1.627s-1.388.334-1.418.364a3.868,3.868,0,0,0,.12.539c.145.559.14.649-.075.928l-.09.12-.369-.279a10.753,10.753,0,0,1-1.5-1.368,7.384,7.384,0,0,1-.889-1.143,2.115,2.115,0,0,1,.469-.31,3.961,3.961,0,0,0,.519-.324,8.626,8.626,0,0,0,.414-1.677,10.735,10.735,0,0,0-1.383-.344,5.174,5.174,0,0,0-.16.539l-.14.509-.255.145-.26.15-.1-.24a11.868,11.868,0,0,1-.564-1.562,11.164,11.164,0,0,1-.334-1.852v-.195H3.291l.624-.624.624-.624-.524-.524-.524-.524-.4.4-.4.4H2.1l.03-.379a11.358,11.358,0,0,1,.459-2.131,3.787,3.787,0,0,1,.579-1.293c.03.01.27.135.529.29l.474.27.824-.22c.449-.12.829-.23.839-.24a13.405,13.405,0,0,0-.374-1.408,3.065,3.065,0,0,0-.549.12l-.524.14-.235-.13a.653.653,0,0,1-.24-.18,7.6,7.6,0,0,1,.874-1.128A7.694,7.694,0,0,1,6.71-493.15c.025.025.165.259.314.519l.275.474.764.21c.424.115.8.21.849.21s.125-.155.27-.694c.1-.389.18-.709.17-.719s-.255-.08-.544-.155l-.524-.135-.14-.25a.8.8,0,0,1-.12-.275,10.523,10.523,0,0,1,1.5-.584,10.01,10.01,0,0,1,2.171-.424l.16-.005Zm1.752,3.958a6.065,6.065,0,0,1,4.208,2.98l.18.324-.285.06a6.853,6.853,0,0,0-3.245,1.922,6.794,6.794,0,0,0-1.747,3.379,8.356,8.356,0,0,0,.02,2.591c.06.26.12.519.145.569.035.09.01.095-.609.065A5.946,5.946,0,0,1,6.6-484.494a5.988,5.988,0,0,1,4.932-5.91A7.578,7.578,0,0,1,13.6-490.409Zm6.8,4.772a5.263,5.263,0,0,1,4.213,5.406,5.153,5.153,0,0,1-1.657,3.564,5.353,5.353,0,0,1-2.531,1.343,6.842,6.842,0,0,1-2.116,0,5.344,5.344,0,0,1-3.724-2.965,5.258,5.258,0,0,1,2.146-6.749A5.259,5.259,0,0,1,20.4-485.637Z" transform="translate(-0.6 496.499)" fill="#909090"/><path d="M341.311-253.812c-.426.719-1.13,1.958-1.115,1.973s.293.174.63.372c.709.407.615.426.952-.188a3.051,3.051,0,0,1,.218-.357,3.061,3.061,0,0,1,.218.357c.342.62.243.6.952.188.337-.2.62-.362.63-.372s-.273-.516-.625-1.125l-.64-1.106-.526-.015-.521-.015Z" transform="translate(-323.225 266.211)" fill="#909090"/><path d="M300.03-182.617c-.094.154-.387.659-.649,1.115l-.481.833.159.283c.089.154.213.367.278.471l.114.183,1.279-.01,1.274-.015.015-.734.015-.729h-.526a1.552,1.552,0,0,1-.521-.045,3.508,3.508,0,0,1,.243-.471l.248-.426-.357-.2c-.2-.114-.486-.283-.639-.372l-.283-.164Z" transform="translate(-283.995 198.57)" fill="#909090"/><path d="M392.085-181.783l-.625.367.243.421a3.5,3.5,0,0,1,.243.471,1.552,1.552,0,0,1-.521.045H390.9l.015.729.015.734L392.2-179l1.279.01.114-.183c.064-.1.188-.317.278-.471l.159-.283-.625-1.081c-.342-.595-.64-1.1-.659-1.111A3.377,3.377,0,0,0,392.085-181.783Z" transform="translate(-371.376 197.83)" fill="#909090"/></svg>