<svg xmlns="http://www.w3.org/2000/svg" width="164.467" height="36.337" viewBox="0 0 164.467 36.337">
  <g id="connect-business-insurance-logo_1_" data-name="connect-business-insurance-logo (1)" transform="translate(-0.6 332.8)">
    <path id="Path_1683" data-name="Path 1683" d="M152.131-332.7a8.9,8.9,0,0,0-7.351,11.651,9.9,9.9,0,0,0,.372,1.017c.066.1.6-.164,2.024-1l1.936-1.127-.088-.383a9.39,9.39,0,0,1-.088-1.367,2.931,2.931,0,0,1,.306-1.608,4.452,4.452,0,0,1,4.77-2.505,4.426,4.426,0,0,1,3.5,4.879,4.555,4.555,0,0,1-3.763,3.719,4.706,4.706,0,0,1-3.315-.974,1.166,1.166,0,0,0-.416-.284c-.044,0-.941.492-1.98,1.1-1.608.941-1.871,1.127-1.783,1.291a10.267,10.267,0,0,0,2.4,2.089,9.33,9.33,0,0,0,6.848.985,11.9,11.9,0,0,0,3.413-1.75,9.307,9.307,0,0,0,2.9-4.376,6.963,6.963,0,0,0,.252-2.516,6.963,6.963,0,0,0-.252-2.516,9.073,9.073,0,0,0-4.671-5.514,8.355,8.355,0,0,0-2.9-.82A5.7,5.7,0,0,0,152.131-332.7Z" transform="translate(-127.999 0)" fill="#1f5871"/>
    <path id="Path_1684" data-name="Path 1684" d="M398.649-282.725a7.072,7.072,0,0,0-5.481,5.251,9.782,9.782,0,0,0,.2,4.3,7.067,7.067,0,0,0,4.529,4.354,6.205,6.205,0,0,0,2.615.317,5.945,5.945,0,0,0,2.505-.306,6.376,6.376,0,0,0,2.374-1.357l.547-.5-.678-.689-.678-.689-.613.481a5.438,5.438,0,0,1-5.864.667,5.34,5.34,0,0,1-1.444-8.577,5.645,5.645,0,0,1,1.335-.908,5.482,5.482,0,0,1,5.94.547l.58.46.3-.219a5.74,5.74,0,0,0,.711-.645l.416-.427-.613-.569a7,7,0,0,0-2.976-1.477A11.043,11.043,0,0,0,398.649-282.725Z" transform="translate(-349.487 -44.462)" fill="#0d3345"/>
    <path id="Path_1685" data-name="Path 1685" d="M557.525-282.7A7.064,7.064,0,0,0,552-275.676a7.059,7.059,0,0,0,3.829,6.4,7.086,7.086,0,0,0,3.719.766,6.063,6.063,0,0,0,2.56-.317,7.03,7.03,0,0,0,4.7-4.988,9.588,9.588,0,0,0,.175-1.86,6.518,6.518,0,0,0-1.969-5.043,6.622,6.622,0,0,0-2.9-1.805A10.187,10.187,0,0,0,557.525-282.7Zm3.818,1.991a5.247,5.247,0,0,1,3.566,5.032,5.381,5.381,0,0,1-7.877,4.748,5.278,5.278,0,0,1-2.855-5.514,5.252,5.252,0,0,1,5.645-4.54A6.083,6.083,0,0,1,561.342-280.708Z" transform="translate(-491.079 -44.456)" fill="#0d3345"/>
    <path id="Path_1686" data-name="Path 1686" d="M1249.707-282.688a7.036,7.036,0,0,0-5.481,7.592,6.845,6.845,0,0,0,4.059,5.929,8.7,8.7,0,0,0,5.229.536,8.062,8.062,0,0,0,3.085-1.51l.547-.492-.7-.711-.7-.711-.492.438a5.53,5.53,0,0,1-7.866-.831,5.485,5.485,0,0,1-.022-6.422,5.585,5.585,0,0,1,6.728-1.63,5.345,5.345,0,0,1,1.1.711,2,2,0,0,0,.547.394,4.036,4.036,0,0,0,.744-.667l.656-.667-.547-.481a7.832,7.832,0,0,0-3.063-1.521A10.7,10.7,0,0,0,1249.707-282.688Z" transform="translate(-1107.558 -44.456)" fill="#0d3345"/>
    <path id="Path_1687" data-name="Path 1687" d="M746-274.889v7.111h2.078l.022-5.174.033-5.174,4.157,5.174,4.157,5.174h1.7V-282h-2.079l-.022,5.142-.033,5.153-4.146-5.153L747.728-282H746Z" transform="translate(-663.856 -45.243)" fill="#0d3345"/>
    <path id="Path_1688" data-name="Path 1688" d="M924-274.889v7.111h2.188l.022-5.131.033-5.131,4.113,5.1,4.1,5.109.9.033.9.033V-282h-2.188l-.022,5.12-.033,5.12-4.1-5.12-4.1-5.109h-.9L924-282Z" transform="translate(-822.383 -45.243)" fill="#0d3345"/>
    <path id="Path_1689" data-name="Path 1689" d="M1103-274.889v7.111h10.283v-1.86h-8.2v-4.485h7.111v-1.75h-7.111v-4.266h7.877V-282H1103Z" transform="translate(-981.801 -45.243)" fill="#0d3345"/>
    <path id="Path_1690" data-name="Path 1690" d="M1397-281.07v.93h4.813v12.362h2.078V-280.14h4.813V-282H1397Z" transform="translate(-1243.638 -45.243)" fill="#0d3345"/>
    <path id="Path_1691" data-name="Path 1691" d="M8.378-247.713a8.618,8.618,0,0,0-5.459,2.822,6.738,6.738,0,0,0-1.378,2A7.591,7.591,0,0,0,.6-238.863a7.663,7.663,0,0,0,.755,3.676A8.892,8.892,0,0,0,7.3-230.21a10.809,10.809,0,0,0,4.354-.011,9.473,9.473,0,0,0,3.3-1.608c.9-.689,1.641-1.521,1.488-1.674-.055-.055-1-.624-2.1-1.258l-2-1.16-.438.383a4.3,4.3,0,0,1-6.7-1.553,3.052,3.052,0,0,1-.35-1.783,3.009,3.009,0,0,1,.4-1.871A4.2,4.2,0,0,1,7.4-242.834a2.844,2.844,0,0,1,1.718-.339,3.746,3.746,0,0,1,2.833,1.039,2.781,2.781,0,0,0,.733.536,38.076,38.076,0,0,0,4.015-2.385,6.518,6.518,0,0,0-1.75-1.936,9.2,9.2,0,0,0-4.463-1.805A5.958,5.958,0,0,0,8.378-247.713Z" transform="translate(0 -75.69)" fill="#f17528"/>
    <path id="Path_1692" data-name="Path 1692" d="M118.676-197.664l-2.057,1.214.066.624a4.786,4.786,0,0,1-.208,1.849c-.044.131.4.438,1.969,1.335a20.4,20.4,0,0,0,2.177,1.171c.175,0,.536-.919.777-1.969a11.528,11.528,0,0,0,.044-3.523,7.126,7.126,0,0,0-.624-1.936C120.776-198.89,119.813-198.343,118.676-197.664Z" transform="translate(-103.198 -119.251)" fill="#f17528"/>
    <path id="Path_1693" data-name="Path 1693" d="M153.392-162.714a9.063,9.063,0,0,0-3.752,1.838,6.655,6.655,0,0,0-1.63,1.882,19.8,19.8,0,0,0,1.882,1.171l1.838,1.061.5-.449a4.346,4.346,0,0,1,3.6-1.083,4.321,4.321,0,0,1,2.21,7.483,4.213,4.213,0,0,1-4.781.711,5.337,5.337,0,0,1-2.068-2.111,3.153,3.153,0,0,1-.317-1.871V-155.3l-1.838-1.061a14.51,14.51,0,0,0-1.925-1.006,4.268,4.268,0,0,0-.35.908,6.6,6.6,0,0,0-.263,2.44,7.215,7.215,0,0,0,.886,3.993,8.954,8.954,0,0,0,5.711,4.671,11.166,11.166,0,0,0,4.343.044,9.817,9.817,0,0,0,4.748-2.943,9.159,9.159,0,0,0,1.761-8.172,9.1,9.1,0,0,0-6.662-6.3A13.274,13.274,0,0,0,153.392-162.714Z" transform="translate(-129.939 -151.347)" fill="#0d3345"/>
    <path id="Path_1694" data-name="Path 1694" d="M1393.085-98.405a2.8,2.8,0,0,0-.93.4,2.953,2.953,0,0,0-.3,4.409,2.506,2.506,0,0,0,1.882.678,2.534,2.534,0,0,0,1.838-.635c.339-.284.35-.306.175-.5-.241-.273-.273-.263-.886.12a1.958,1.958,0,0,1-2.571-.3,1.869,1.869,0,0,1-.525-1.455,1.869,1.869,0,0,1,.525-1.455,1.781,1.781,0,0,1,1.477-.624,1.673,1.673,0,0,1,1.1.339c.5.306.536.317.733.142.284-.263.263-.394-.153-.667A3.159,3.159,0,0,0,1393.085-98.405Z" transform="translate(-1238.301 -208.697)" fill="#818285"/>
    <path id="Path_1695" data-name="Path 1695" d="M398-95.254v2.746l1.619-.044c1.739-.044,2.089-.142,2.527-.7a1.379,1.379,0,0,0-.077-1.674,1.98,1.98,0,0,0-.459-.361c-.131-.044-.1-.12.142-.4a1.413,1.413,0,0,0,.022-1.739c-.361-.438-.963-.569-2.505-.569H398Zm3.107-1.772a.684.684,0,0,1,.022,1.072c-.252.284-.317.306-1.313.339l-1.05.044v-1.794l1.028.044C400.713-97.289,400.855-97.256,401.107-97.026Zm0,2.2a1.169,1.169,0,0,1,.459.383.511.511,0,0,1,.055.58c-.208.492-.514.613-1.728.656l-1.127.044v-1.772h1.028A5.5,5.5,0,0,1,401.107-94.827Z" transform="translate(-353.926 -209.114)" fill="#818285"/>
    <path id="Path_1696" data-name="Path 1696" d="M464.844-96.009c.033,1.893.044,2.024.306,2.494a1.911,1.911,0,0,0,1.958.985,1.907,1.907,0,0,0,2-1.061c.23-.481.252-.689.284-2.472L469.438-98h-.788v1.805c0,1.925-.077,2.319-.536,2.724a1.935,1.935,0,0,1-1.849.066c-.591-.361-.678-.744-.678-2.79V-98H464.8Z" transform="translate(-413.418 -209.114)" fill="#818285"/>
    <path id="Path_1697" data-name="Path 1697" d="M533.594-97.849a1.242,1.242,0,0,0-.766,1.291c0,.547.033.624.383.952a2.937,2.937,0,0,0,1.324.591,4.116,4.116,0,0,1,1.181.47.669.669,0,0,1-.044,1.028c-.481.492-1.553.361-2.483-.3-.164-.12-.241-.1-.438.109l-.252.241.328.273a3.231,3.231,0,0,0,3.129.35,1.531,1.531,0,0,0,.514-2.046,2.753,2.753,0,0,0-1.553-.777c-.864-.186-1.313-.5-1.357-.941-.077-.766,1.083-1.061,2.09-.525l.514.263.175-.263c.219-.328.164-.416-.449-.7A3.035,3.035,0,0,0,533.594-97.849Z" transform="translate(-473.712 -209.057)" fill="#818285"/>
    <path id="Path_1698" data-name="Path 1698" d="M599-95.265v2.735h.766V-98H599Z" transform="translate(-532.937 -209.114)" fill="#818285"/>
    <path id="Path_1699" data-name="Path 1699" d="M637-95.265v2.735h.656l.022-2.1.033-2.089,1.641,2.089c1.411,1.805,1.685,2.1,1.947,2.1h.3V-98h-.766l-.022,2-.033,2.013L639.2-96c-1.389-1.761-1.608-2-1.882-2H637Z" transform="translate(-566.78 -209.114)" fill="#818285"/>
    <path id="Path_1700" data-name="Path 1700" d="M709-95.265v2.735h4.048v-.656h-3.282v-1.75h2.844v-.656h-2.844v-1.75h3.172V-98H709Z" transform="translate(-630.903 -209.114)" fill="#818285"/>
    <path id="Path_1701" data-name="Path 1701" d="M772.344-97.874a1.266,1.266,0,0,0-.7,1.269c0,.9.372,1.225,1.783,1.6,1.017.263,1.28.449,1.28.919a.669.669,0,0,1-.3.6,2.1,2.1,0,0,1-2.1-.142c-.536-.35-.624-.361-.777-.066s.011.5.711.82a3.086,3.086,0,0,0,2.472.022,1.46,1.46,0,0,0,.58-1.958,2.519,2.519,0,0,0-1.477-.864,2.61,2.61,0,0,1-1.357-.58.6.6,0,0,1,.109-.9,1.7,1.7,0,0,1,1.9,0c.448.263.481.263.624.088.241-.306.131-.5-.394-.777A3.105,3.105,0,0,0,772.344-97.874Z" transform="translate(-686.546 -209.032)" fill="#818285"/>
    <path id="Path_1702" data-name="Path 1702" d="M833.375-97.84a1.457,1.457,0,0,0-.613,1.925c.219.449.58.656,1.652.941,1.3.35,1.7.875,1.083,1.477-.492.5-1.532.372-2.483-.3-.164-.12-.23-.1-.438.1-.3.306-.186.459.6.853a2.572,2.572,0,0,0,1.3.273c1.346,0,1.947-.459,1.947-1.488,0-.853-.328-1.181-1.532-1.532-1.116-.317-1.466-.547-1.51-1a.557.557,0,0,1,.273-.58,1.868,1.868,0,0,1,1.914.109l.339.252.208-.252a.827.827,0,0,0,.2-.35,1.5,1.5,0,0,0-.569-.361A3.1,3.1,0,0,0,833.375-97.84Z" transform="translate(-740.827 -209.077)" fill="#818285"/>
    <path id="Path_1703" data-name="Path 1703" d="M937-95.265v2.735h.656V-98H937Z" transform="translate(-833.961 -209.114)" fill="#818285"/>
    <path id="Path_1704" data-name="Path 1704" d="M974-95.265v2.735h.766l.022-2.068.033-2.068,1.63,2.068c1.291,1.652,1.674,2.068,1.882,2.068h.263V-98h-.656l-.022,2.035-.033,2.024L976.3-95.965c-1.466-1.882-1.608-2.024-1.936-2.035H974Z" transform="translate(-866.913 -209.114)" fill="#818285"/>
    <path id="Path_1705" data-name="Path 1705" d="M1045.216-97.853a1.351,1.351,0,0,0-.766,1.466c.055.733.328,1.006,1.247,1.28,1.225.35,1.575.5,1.75.766.208.328.077.7-.35.985a2.243,2.243,0,0,1-2.024-.219l-.47-.306-.219.219c-.2.2-.208.252-.066.416a2.933,2.933,0,0,0,1.991.7c1.313,0,1.936-.5,1.936-1.575,0-.777-.438-1.16-1.718-1.5-1.127-.3-1.521-.591-1.411-1.061.175-.733,1.225-.919,2.144-.394l.481.273.2-.252a1.055,1.055,0,0,0,.2-.328,2.02,2.02,0,0,0-.569-.35A3.257,3.257,0,0,0,1045.216-97.853Z" transform="translate(-929.454 -209.096)" fill="#818285"/>
    <path id="Path_1706" data-name="Path 1706" d="M1109-96.042a13.514,13.514,0,0,0,.12,2.275,2.153,2.153,0,0,0,1.05,1.083,3.432,3.432,0,0,0,2.221-.066c.9-.459,1.094-1.072,1.094-3.479V-98h-.755l-.033,2.035-.033,2.035-.4.372a1.121,1.121,0,0,1-.963.372,1.374,1.374,0,0,1-1.433-.8,5.358,5.358,0,0,1-.208-2.243V-98H1109Z" transform="translate(-987.145 -209.114)" fill="#818285"/>
    <path id="Path_1707" data-name="Path 1707" d="M1180-95.454v2.746h.656v-2.079l.744.011h.733l.744,1.039c.722,1,.766,1.028,1.182,1.028.23,0,.427-.033.427-.066s-.678-.974-1.444-1.98c-.076-.088,0-.175.263-.284a1.388,1.388,0,0,0,.93-1.3,1.442,1.442,0,0,0-.788-1.553c-.361-.2-.678-.241-1.936-.263L1180-98.2Zm3.14-1.783a.875.875,0,0,1,.3,1.127c-.208.481-.7.667-1.849.667h-.93v-2.1l1.094.044C1182.625-97.467,1182.9-97.412,1183.14-97.237Z" transform="translate(-1050.377 -208.936)" fill="#818285"/>
    <path id="Path_1708" data-name="Path 1708" d="M1245.363-95.473c-.624,1.378-1.149,2.615-1.182,2.735-.044.175,0,.208.284.208.317,0,.372-.055.667-.711l.317-.711h2.8l.3.689c.274.645.306.678.689.711.35.033.4.011.339-.142-.033-.1-.591-1.335-1.225-2.746-1.159-2.549-1.159-2.56-1.51-2.56S1246.5-97.978,1245.363-95.473Zm2.024-.383a12.408,12.408,0,0,1,.481,1.16,3.384,3.384,0,0,1-1.05.088c-.919,0-1.039-.022-.985-.175a17.341,17.341,0,0,1,1.028-2.177C1246.894-96.939,1247.124-96.436,1247.387-95.856Z" transform="translate(-1107.525 -209.114)" fill="#818285"/>
    <path id="Path_1709" data-name="Path 1709" d="M1320-95.265v2.735h.766l.022-2.068.033-2.057,1.619,2.057c1.313,1.674,1.674,2.068,1.893,2.068h.262V-98h-.656l-.022,2.035-.033,2.035-1.586-2.024c-1.477-1.893-1.608-2.035-1.936-2.046H1320Z" transform="translate(-1175.062 -209.114)" fill="#818285"/>
    <path id="Path_1710" data-name="Path 1710" d="M1462-95.265v2.735h3.938v-.656h-3.282v-1.75h2.954v-.656h-2.954v-1.75h3.282V-98H1462Z" transform="translate(-1301.527 -209.114)" fill="#818285"/>
  </g>
</svg>
