<svg xmlns="http://www.w3.org/2000/svg" xmlns:xlink="http://www.w3.org/1999/xlink" width="74.255" height="36.6" viewBox="0 0 74.255 36.6">
  <defs>
    <linearGradient id="linear-gradient" x1="-0.814" y1="-4.863" x2="1.864" y2="6.079" gradientUnits="objectBoundingBox">
      <stop offset="0" stop-color="#fcee21"/>
      <stop offset="1" stop-color="#fbb03b"/>
    </linearGradient>
    <linearGradient id="linear-gradient-2" x1="-1.204" y1="-4.358" x2="1.173" y2="2.451" xlink:href="#linear-gradient"/>
    <linearGradient id="linear-gradient-3" x1="0.5" y1="0.015" x2="0.5" y2="0.978" gradientUnits="objectBoundingBox">
      <stop offset="0" stop-color="#fff"/>
      <stop offset="1" stop-color="#b3b3b3"/>
    </linearGradient>
    <linearGradient id="linear-gradient-4" x1="0.5" y1="0.015" x2="0.5" y2="0.978" xlink:href="#linear-gradient-3"/>
    <linearGradient id="linear-gradient-5" x1="0.5" y1="-0.481" x2="0.5" y2="1.47" xlink:href="#linear-gradient"/>
    <linearGradient id="linear-gradient-6" x1="-0.083" y1="-1.187" x2="0.876" y2="1.268" xlink:href="#linear-gradient"/>
    <linearGradient id="linear-gradient-7" x1="-1.378" y1="-1.133" x2="4.055" y2="3.331" xlink:href="#linear-gradient"/>
    <linearGradient id="linear-gradient-8" x1="-1.385" y1="-1.732" x2="4.183" y2="4.477" xlink:href="#linear-gradient"/>
    <linearGradient id="linear-gradient-9" x1="-0.357" y1="-0.983" x2="2.184" y2="3.595" xlink:href="#linear-gradient"/>
    <linearGradient id="linear-gradient-10" x1="-0.826" y1="-3.013" x2="2.433" y2="5.835" xlink:href="#linear-gradient"/>
    <linearGradient id="linear-gradient-11" x1="-0.507" y1="-3.5" x2="1.67" y2="5.542" xlink:href="#linear-gradient"/>
    <linearGradient id="linear-gradient-12" x1="-1.277" y1="-8.034" x2="1.87" y2="6.977" xlink:href="#linear-gradient"/>
    <linearGradient id="linear-gradient-13" x1="-0.947" y1="-3.353" x2="1.256" y2="2.358" xlink:href="#linear-gradient"/>
    <linearGradient id="linear-gradient-14" x1="-2.43" y1="-4.751" x2="1.433" y2="2.107" xlink:href="#linear-gradient"/>
    <linearGradient id="linear-gradient-15" x1="-2.516" y1="-3.19" x2="0.984" y2="1.057" xlink:href="#linear-gradient"/>
    <linearGradient id="linear-gradient-16" x1="-8.588" y1="-5.279" x2="1.314" y2="1.096" xlink:href="#linear-gradient"/>
    <linearGradient id="linear-gradient-17" x1="0.5" y1="0.962" x2="0.5" y2="-1.014" gradientUnits="objectBoundingBox">
      <stop offset="0" stop-color="#26190e" stop-opacity="0"/>
      <stop offset="1" stop-color="#26190e"/>
    </linearGradient>
    <linearGradient id="linear-gradient-18" x1="0.5" y1="0.962" x2="0.5" y2="-1.014" xlink:href="#linear-gradient-17"/>
    <linearGradient id="linear-gradient-19" x1="0.5" y1="5.274" x2="0.5" y2="-5.561" xlink:href="#linear-gradient-17"/>
    <linearGradient id="linear-gradient-20" x1="0.5" y1="0.961" x2="0.5" y2="-1.014" xlink:href="#linear-gradient-17"/>
    <linearGradient id="linear-gradient-21" x1="0.5" y1="2.946" x2="0.5" y2="-4.605" xlink:href="#linear-gradient-17"/>
    <linearGradient id="linear-gradient-22" x1="0.5" y1="0.502" x2="0.5" y2="-1.986" xlink:href="#linear-gradient-17"/>
    <linearGradient id="linear-gradient-23" x1="0.5" y1="-0.006" x2="0.5" y2="-3.073" xlink:href="#linear-gradient-17"/>
    <linearGradient id="linear-gradient-24" x1="0.5" y1="-0.199" x2="0.5" y2="-1.99" xlink:href="#linear-gradient-17"/>
    <linearGradient id="linear-gradient-25" x1="0.5" y1="-0.457" x2="0.5" y2="-3.179" xlink:href="#linear-gradient-17"/>
    <linearGradient id="linear-gradient-26" x1="0.501" y1="-1.536" x2="0.501" y2="0.932" xlink:href="#linear-gradient"/>
    <linearGradient id="linear-gradient-27" x1="0.5" y1="-1.536" x2="0.5" y2="0.932" xlink:href="#linear-gradient"/>
    <linearGradient id="linear-gradient-28" x1="0.5" y1="-1.538" x2="0.5" y2="0.931" xlink:href="#linear-gradient"/>
    <linearGradient id="linear-gradient-29" x1="0.501" y1="-1.489" x2="0.501" y2="0.922" xlink:href="#linear-gradient"/>
    <linearGradient id="linear-gradient-30" x1="0.5" y1="-1.538" x2="0.5" y2="0.932" xlink:href="#linear-gradient"/>
    <linearGradient id="linear-gradient-31" x1="0.5" y1="-1.536" x2="0.5" y2="0.932" xlink:href="#linear-gradient"/>
    <linearGradient id="linear-gradient-32" x1="0.5" y1="-1.538" x2="0.5" y2="0.931" xlink:href="#linear-gradient"/>
    <linearGradient id="linear-gradient-33" x1="0.5" y1="-1.487" x2="0.5" y2="0.922" xlink:href="#linear-gradient"/>
    <linearGradient id="linear-gradient-34" x1="0.501" y1="-1.489" x2="0.501" y2="0.922" xlink:href="#linear-gradient"/>
    <linearGradient id="linear-gradient-35" x1="0.499" y1="-1.538" x2="0.499" y2="0.932" xlink:href="#linear-gradient"/>
    <linearGradient id="linear-gradient-36" x1="0.499" y1="-1.539" x2="0.499" y2="0.931" xlink:href="#linear-gradient"/>
    <linearGradient id="linear-gradient-37" x1="0.5" y1="-1.538" x2="0.5" y2="0.931" xlink:href="#linear-gradient"/>
    <linearGradient id="linear-gradient-38" x1="0.5" y1="-1.538" x2="0.5" y2="0.931" xlink:href="#linear-gradient"/>
    <linearGradient id="linear-gradient-39" x1="0.501" y1="-1.536" x2="0.501" y2="0.932" xlink:href="#linear-gradient"/>
    <linearGradient id="linear-gradient-40" x1="0.5" y1="-1.538" x2="0.5" y2="0.931" xlink:href="#linear-gradient"/>
    <linearGradient id="linear-gradient-41" x1="0.5" y1="-1.539" x2="0.5" y2="0.931" xlink:href="#linear-gradient"/>
    <linearGradient id="linear-gradient-42" x1="0.5" y1="-1.539" x2="0.5" y2="0.931" xlink:href="#linear-gradient"/>
    <linearGradient id="linear-gradient-43" x1="0.503" y1="-0.769" x2="0.503" y2="1.677" xlink:href="#linear-gradient-3"/>
    <linearGradient id="linear-gradient-44" x1="0.5" y1="-0.769" x2="0.5" y2="1.677" xlink:href="#linear-gradient-3"/>
    <linearGradient id="linear-gradient-45" x1="0.501" y1="-0.769" x2="0.501" y2="1.677" xlink:href="#linear-gradient-3"/>
    <linearGradient id="linear-gradient-46" x1="0.5" y1="-0.769" x2="0.5" y2="1.678" xlink:href="#linear-gradient-3"/>
    <linearGradient id="linear-gradient-47" x1="0.5" y1="-0.769" x2="0.5" y2="1.677" xlink:href="#linear-gradient-3"/>
    <linearGradient id="linear-gradient-48" x1="0.501" y1="-0.769" x2="0.501" y2="1.678" xlink:href="#linear-gradient-3"/>
    <linearGradient id="linear-gradient-49" x1="0.5" y1="-0.769" x2="0.5" y2="1.677" xlink:href="#linear-gradient-3"/>
    <linearGradient id="linear-gradient-51" x1="0.5" y1="-0.769" x2="0.5" y2="1.678" xlink:href="#linear-gradient-3"/>
    <linearGradient id="linear-gradient-53" x1="0.5" y1="-0.769" x2="0.5" y2="1.677" xlink:href="#linear-gradient-3"/>
    <linearGradient id="linear-gradient-54" x1="0.501" y1="-0.769" x2="0.501" y2="1.678" xlink:href="#linear-gradient-3"/>
    <linearGradient id="linear-gradient-55" x1="0.5" y1="-0.769" x2="0.5" y2="1.677" xlink:href="#linear-gradient-3"/>
    <linearGradient id="linear-gradient-56" x1="0.5" y1="-0.769" x2="0.5" y2="1.678" xlink:href="#linear-gradient-3"/>
    <linearGradient id="linear-gradient-57" x1="0.5" y1="-0.769" x2="0.5" y2="1.677" xlink:href="#linear-gradient-3"/>
    <linearGradient id="linear-gradient-58" x1="0.501" y1="-0.757" x2="0.501" y2="1.662" xlink:href="#linear-gradient-3"/>
  </defs>
  <g id="ESP_SVG-01" transform="translate(-583.26 -493.17)">
    <g id="Group_8799" data-name="Group 8799" transform="translate(593.679 503.691)">
      <path id="Path_1714" data-name="Path 1714" d="M653.183,556.769a9.183,9.183,0,0,1,3.044-1.6,12.206,12.206,0,0,1,3.049-.538c-.253-.024-.509-.041-.769-.041a7.984,7.984,0,0,0-6.667,3.584A7.647,7.647,0,0,1,653.183,556.769Z" transform="translate(-650.511 -554.59)" fill="url(#linear-gradient)"/>
      <path id="Path_1715" data-name="Path 1715" d="M648.3,617.758a7.917,7.917,0,0,1-2.006-2.578,7,7,0,0,1-.346-.85,8,8,0,0,0,7.678,5.759c.236,0,.469-.014.7-.034a11.1,11.1,0,0,1-2.982-.591A9.47,9.47,0,0,1,648.3,617.758Z" transform="translate(-645.63 -604.096)" fill="url(#linear-gradient-2)"/>
      <g id="Group_8798" data-name="Group 8798" transform="translate(0 0.017)">
        <path id="Path_1716" data-name="Path 1716" d="M779.738,562.16a7.666,7.666,0,0,0-4.464-1.086h-8.69a2.564,2.564,0,0,1-1.278-.25.93.93,0,0,1-.418-.872.9.9,0,0,1,.418-.86,2.651,2.651,0,0,1,1.278-.238H777.66l3.174-4.154h-13.87a11.89,11.89,0,0,0-3.116.358,5.974,5.974,0,0,0-2.124,1,3.934,3.934,0,0,0-1.218,1.564,5.14,5.14,0,0,0-.394,2.04,4.776,4.776,0,0,0,.358,1.874,3.657,3.657,0,0,0,1.1,1.444,5.376,5.376,0,0,0,1.862.93,9.439,9.439,0,0,0,2.674.334h8.69a2.45,2.45,0,0,1,1.29.262.971.971,0,0,1,.406.884,1,1,0,0,1-.406.9,2.352,2.352,0,0,1-1.29.274h-12.08l-3.174,4.106h14.872a11.891,11.891,0,0,0,3.116-.358,5.869,5.869,0,0,0,2.136-1.026,3.9,3.9,0,0,0,1.218-1.646,5.985,5.985,0,0,0,.382-2.2A3.755,3.755,0,0,0,779.738,562.16Z" transform="translate(-739.762 -554.698)" fill="url(#linear-gradient-3)"/>
        <path id="Path_1717" data-name="Path 1717" d="M914.011,558.248a5.3,5.3,0,0,0-1.528-1.886,7.411,7.411,0,0,0-2.46-1.23,11.425,11.425,0,0,0-3.318-.442H896.68l-3.27,4.154h13.75a2.84,2.84,0,0,1,1.778.49,1.585,1.585,0,0,1,.632,1.324,1.619,1.619,0,0,1-.632,1.336,2.8,2.8,0,0,1-1.778.5H893.41v8.164h4.918v-4.08h8.356a11.745,11.745,0,0,0,3.318-.43,7.643,7.643,0,0,0,2.47-1.194,5.047,5.047,0,0,0,1.54-1.85,5.5,5.5,0,0,0,.524-2.422A5.56,5.56,0,0,0,914.011,558.248Z" transform="translate(-850.7 -554.69)" fill="url(#linear-gradient-4)"/>
        <path id="Path_1718" data-name="Path 1718" d="M682.49,593.52a1.617,1.617,0,0,0,1.612,1.612h5.367l2.463-3.222H684.1A1.615,1.615,0,0,0,682.49,593.52Z" transform="translate(-675.91 -585.534)" fill="url(#linear-gradient-5)"/>
        <path id="Path_1719" data-name="Path 1719" d="M654.154,566.556h-.514a6.076,6.076,0,0,1-1.862-.274,4.671,4.671,0,0,1-1.492-.776,3.588,3.588,0,0,1-.966-4.346,3.767,3.767,0,0,1,.978-1.23,4.562,4.562,0,0,1,1.48-.8,5.876,5.876,0,0,1,1.862-.286h8.02l3.174-4.154h-11.2c-.269,0-.533.009-.793.024a12.2,12.2,0,0,0-3.049.538,9.151,9.151,0,0,0-3.044,1.6,7.647,7.647,0,0,0-1.343,1.4,7.952,7.952,0,0,0-1.329,4.413,8.039,8.039,0,0,0,.319,2.237,7.417,7.417,0,0,0,.346.85,7.871,7.871,0,0,0,2.006,2.578,9.47,9.47,0,0,0,3.044,1.706,11.09,11.09,0,0,0,2.982.591c.283.019.57.029.862.029h8.02l3.174-4.106H654.154Z" transform="translate(-644.08 -554.69)" fill="url(#linear-gradient-6)"/>
      </g>
    </g>
    <g id="Group_8805" data-name="Group 8805" transform="translate(583.26 493.17)">
      <g id="Group_8800" data-name="Group 8800" transform="translate(12.195)">
        <path id="Path_1720" data-name="Path 1720" d="M683.9,501.954h-2.047l-.809-8.784h3.666Z" transform="translate(-676.485 -493.17)" fill="url(#linear-gradient-7)"/>
        <path id="Path_1721" data-name="Path 1721" d="M658.027,518.072l-1.055.384-2.522-5.629,1.889-.687Z" transform="translate(-654.45 -508.89)" fill="url(#linear-gradient-8)"/>
      </g>
      <g id="Group_8801" data-name="Group 8801" transform="translate(4.3 3.16)">
        <path id="Path_1722" data-name="Path 1722" d="M621.785,518.869l-1.569,1.316-6.266-6.208,2.808-2.357Z" transform="translate(-612.992 -511.62)" fill="url(#linear-gradient-9)"/>
        <path id="Path_1723" data-name="Path 1723" d="M614.47,553.369l-.562.973-5.548-2.691,1.006-1.74Z" transform="translate(-608.36 -543.351)" fill="url(#linear-gradient-10)"/>
      </g>
      <g id="Group_8802" data-name="Group 8802" transform="translate(0 13.521)">
        <path id="Path_1724" data-name="Path 1724" d="M592.407,574.421l-.356,2.016-8.791-.728.637-3.609Z" transform="translate(-583.26 -572.1)" fill="url(#linear-gradient-11)"/>
        <path id="Path_1725" data-name="Path 1725" d="M605.374,608.1l.2,1.1-5.98,1.507-.349-1.982Z" transform="translate(-596.503 -601.933)" fill="url(#linear-gradient-12)"/>
      </g>
      <g id="Group_8803" data-name="Group 8803" transform="translate(1.605 22.54)">
        <path id="Path_1726" data-name="Path 1726" d="M600.642,624.75l1.024,1.773-7.2,5.093-1.833-3.174Z" transform="translate(-592.63 -624.75)" fill="url(#linear-gradient-13)"/>
        <path id="Path_1727" data-name="Path 1727" d="M631.825,642.98l.86.721-3.613,5-1.542-1.292Z" transform="translate(-621.552 -639.857)" fill="url(#linear-gradient-14)"/>
      </g>
      <g id="Group_8804" data-name="Group 8804" transform="translate(10.516 27.367)">
        <path id="Path_1728" data-name="Path 1728" d="M648.415,652.93l1.924.7-2.244,8.532-3.445-1.254Z" transform="translate(-644.65 -652.93)" fill="url(#linear-gradient-15)"/>
        <path id="Path_1729" data-name="Path 1729" d="M686.314,658.41h1.122l.445,6.151H685.87Z" transform="translate(-678.809 -657.471)" fill="url(#linear-gradient-16)"/>
      </g>
    </g>
    <path id="Path_1730" data-name="Path 1730" d="M782.373,601.22H763.991c.06.055.116.111.18.164a5.164,5.164,0,0,0,1.778.887,9.2,9.2,0,0,0,2.6.324h8.69a2.645,2.645,0,0,1,1.422.3,1.2,1.2,0,0,1,.517,1.089,1.239,1.239,0,0,1-.514,1.1,2.556,2.556,0,0,1-1.427.317H765.284l-2.794,3.614h14.372a11.7,11.7,0,0,0,3.051-.349,5.676,5.676,0,0,0,2.049-.982,3.659,3.659,0,0,0,1.143-1.545,5.8,5.8,0,0,0,.365-2.107A3.6,3.6,0,0,0,782.373,601.22Z" transform="translate(-148.528 -89.541)" fill="url(#linear-gradient-17)"/>
    <path id="Path_1731" data-name="Path 1731" d="M909.4,601.212a4.067,4.067,0,0,1-1.033.123h-13.5v7.673h4.426v-4.082h8.6a11.509,11.509,0,0,0,3.248-.42,7.481,7.481,0,0,0,2.393-1.155,4.813,4.813,0,0,0,1.466-1.761c.06-.123.111-.25.161-.38H909.4Z" transform="translate(-258.223 -89.533)" fill="url(#linear-gradient-18)"/>
    <path id="Path_1732" data-name="Path 1732" d="M683.923,601.22c0,.019,0,.038,0,.057a1.367,1.367,0,0,0,1.365,1.365h5.245l1.088-1.422Z" transform="translate(-83.417 -89.541)" fill="url(#linear-gradient-19)"/>
    <path id="Path_1733" data-name="Path 1733" d="M652.9,605.115a4.892,4.892,0,0,1-1.569-.817,3.677,3.677,0,0,1-1.418-2.962c0-.039.005-.077.007-.116h-4.392c0,.017,0,.033,0,.05a7.753,7.753,0,0,0,7.751,7.751c.2,0,.42-.01.678-.034l.019,0,.019,0c.3.019.577.029.846.029h7.9l2.8-3.614H654.845A6.356,6.356,0,0,1,652.9,605.115Z" transform="translate(-51.603 -89.541)" fill="url(#linear-gradient-20)"/>
    <path id="Path_1734" data-name="Path 1734" d="M601.187,611.95l5.5-1.386-.115-.654-5.644.579Z" transform="translate(-14.643 -96.742)" fill="url(#linear-gradient-21)"/>
    <path id="Path_1735" data-name="Path 1735" d="M602.225,626.84l-7.565,3.486,1.564,2.706,6.8-4.807Z" transform="translate(-9.447 -110.772)" fill="url(#linear-gradient-22)"/>
    <path id="Path_1736" data-name="Path 1736" d="M633.59,645.18l-3.95,4.072,1.136.952,3.325-4.6Z" transform="translate(-38.435 -125.971)" fill="url(#linear-gradient-23)"/>
    <path id="Path_1737" data-name="Path 1737" d="M649.568,663.571l2.119-8.053-1.5-.548L646.63,662.5Z" transform="translate(-52.515 -134.084)" fill="url(#linear-gradient-24)"/>
    <path id="Path_1738" data-name="Path 1738" d="M687.819,660.09l-.409,5.66h1.483l-.409-5.66Z" transform="translate(-86.309 -138.327)" fill="url(#linear-gradient-25)"/>
    <path id="Path_1739" data-name="Path 1739" d="M708.66,663.718V660.05h1.573v.555h-1.021v1h.745v.555h-.745v1h1.021v.555H708.66Z" transform="translate(-103.919 -138.293)" fill="url(#linear-gradient-26)"/>
    <path id="Path_1740" data-name="Path 1740" d="M723.023,663.718h-.553V660.05h.793l.516,2.635.5-2.635h.762v3.668h-.553v-2.3l-.48,2.3h-.444l-.534-2.3v2.3Z" transform="translate(-115.363 -138.293)" fill="url(#linear-gradient-27)"/>
    <path id="Path_1741" data-name="Path 1741" d="M743.6,660.07a.84.84,0,0,1,.644.255.878.878,0,0,1,.223.62v.533a.85.85,0,0,1-.254.62.831.831,0,0,1-.613.257h-.319v1.381h-.553v-3.664h.872Zm.331.884a.318.318,0,0,0-.086-.231.309.309,0,0,0-.229-.087h-.334v1.173h.334a.3.3,0,0,0,.224-.094.306.306,0,0,0,.093-.224v-.536Z" transform="translate(-132.153 -138.31)" fill="url(#linear-gradient-28)"/>
    <path id="Path_1742" data-name="Path 1742" d="M758.365,659.8a.874.874,0,0,1,.877.877v2a.876.876,0,1,1-1.752,0v-2a.874.874,0,0,1,.875-.877Zm.3.865a.318.318,0,0,0-.635,0v2.006a.3.3,0,0,0,.094.224.318.318,0,0,0,.449,0,.3.3,0,0,0,.092-.224Z" transform="translate(-144.384 -138.086)" fill="url(#linear-gradient-29)"/>
    <path id="Path_1743" data-name="Path 1743" d="M774.611,660.07h.581l-.574,3.664h-.526l-.315-2.016-.295,2.016h-.529l-.613-3.664h.579l.289,1.963.265-1.963h.579l.289,1.961Z" transform="translate(-156.69 -138.31)" fill="url(#linear-gradient-30)"/>
    <path id="Path_1744" data-name="Path 1744" d="M794.11,663.718V660.05h1.573v.555h-1.021v1h.745v.555h-.745v1h1.021v.555H794.11Z" transform="translate(-174.731 -138.293)" fill="url(#linear-gradient-31)"/>
    <path id="Path_1745" data-name="Path 1745" d="M808.782,660.07a.836.836,0,0,1,.678.255.926.926,0,0,1,.19.62v.533a.856.856,0,0,1-.295.658l.409,1.6h-.6l-.336-1.381h-.368v1.381h-.553v-3.664h.872Zm.331.884a.28.28,0,0,0-.315-.319h-.334v1.173h.334a.3.3,0,0,0,.224-.094.306.306,0,0,0,.092-.224v-.536Z" transform="translate(-186.167 -138.31)" fill="url(#linear-gradient-32)"/>
    <path id="Path_1746" data-name="Path 1746" d="M829.818,662.583a1.025,1.025,0,0,1-.2.654.713.713,0,0,1-.38.26,1.03,1.03,0,0,1-.307.041.865.865,0,0,1-.538-.161.915.915,0,0,1-.283-.358,1.463,1.463,0,0,1-.122-.519l.526-.038a.806.806,0,0,0,.17.464.286.286,0,0,0,.228.1.341.341,0,0,0,.29-.178.438.438,0,0,0,.055-.243.673.673,0,0,0-.207-.454c-.11-.1-.272-.259-.492-.466a2.059,2.059,0,0,1-.389-.478,1.1,1.1,0,0,1-.123-.516.9.9,0,0,1,.336-.759.84.84,0,0,1,.514-.156.936.936,0,0,1,.505.132.779.779,0,0,1,.266.286,1.07,1.07,0,0,1,.122.425l-.529.1a.635.635,0,0,0-.128-.351.272.272,0,0,0-.219-.091.253.253,0,0,0-.231.135.517.517,0,0,0-.065.269.812.812,0,0,0,.216.512,1.951,1.951,0,0,0,.245.235c.128.108.214.182.255.224a1.834,1.834,0,0,1,.315.4,1.221,1.221,0,0,1,.084.173A.98.98,0,0,1,829.818,662.583Z" transform="translate(-202.808 -138.07)" fill="url(#linear-gradient-33)"/>
    <path id="Path_1747" data-name="Path 1747" d="M844.555,659.8a.874.874,0,0,1,.877.877v2a.876.876,0,1,1-1.752,0v-2a.874.874,0,0,1,.875-.877Zm.3.865a.318.318,0,0,0-.636,0v2.006a.3.3,0,0,0,.094.224.318.318,0,0,0,.449,0,.3.3,0,0,0,.093-.224Z" transform="translate(-215.81 -138.086)" fill="url(#linear-gradient-34)"/>
    <path id="Path_1748" data-name="Path 1748" d="M860.676,663.734H859.17V660.07h.553v3.114h.954v.55Z" transform="translate(-228.647 -138.31)" fill="url(#linear-gradient-35)"/>
    <path id="Path_1749" data-name="Path 1749" d="M873.3,662.9l-.134.843h-.576l.624-3.664h.761l.613,3.664h-.581l-.128-.843Zm.289-1.984-.2,1.444h.409Z" transform="translate(-239.768 -138.318)" fill="url(#linear-gradient-36)"/>
    <path id="Path_1750" data-name="Path 1750" d="M890.232,660.07a.836.836,0,0,1,.678.255.926.926,0,0,1,.19.62v.533a.857.857,0,0,1-.295.658l.409,1.6h-.6l-.336-1.381h-.368v1.381h-.553v-3.664h.872Zm.331.884a.28.28,0,0,0-.315-.319h-.334v1.173h.334a.3.3,0,0,0,.224-.094.306.306,0,0,0,.093-.224v-.536Z" transform="translate(-253.665 -138.31)" fill="url(#linear-gradient-37)"/>
    <path id="Path_1751" data-name="Path 1751" d="M910.3,660.07a.84.84,0,0,1,.644.255.877.877,0,0,1,.223.62v.533a.85.85,0,0,1-.254.62.831.831,0,0,1-.613.257h-.319v1.381h-.553v-3.664h.872Zm.331.884a.318.318,0,0,0-.086-.231.308.308,0,0,0-.229-.087h-.334v1.173h.334a.3.3,0,0,0,.224-.094.307.307,0,0,0,.093-.224v-.536Z" transform="translate(-270.297 -138.31)" fill="url(#linear-gradient-38)"/>
    <path id="Path_1752" data-name="Path 1752" d="M924.55,663.718V660.05h1.573v.555H925.1v1h.745v.555H925.1v1h1.021v.555H924.55Z" transform="translate(-282.827 -138.293)" fill="url(#linear-gradient-39)"/>
    <path id="Path_1753" data-name="Path 1753" d="M939.232,660.07a.837.837,0,0,1,.678.255.926.926,0,0,1,.19.62v.533a.857.857,0,0,1-.295.658l.409,1.6h-.6l-.336-1.381h-.368v1.381h-.553v-3.664h.872Zm.331.884a.28.28,0,0,0-.315-.319h-.334v1.173h.334a.3.3,0,0,0,.224-.094.306.306,0,0,0,.092-.224v-.536Z" transform="translate(-294.271 -138.31)" fill="url(#linear-gradient-40)"/>
    <path id="Path_1754" data-name="Path 1754" d="M953.888,660.635H953.3v-.555h1.725v.555h-.584v3.109h-.553Z" transform="translate(-306.652 -138.318)" fill="url(#linear-gradient-41)"/>
    <path id="Path_1755" data-name="Path 1755" d="M968.913,662.19v1.554h-.553V660.08h.553v1.555h.666V660.08h.553v3.664h-.553V662.19Z" transform="translate(-319.132 -138.318)" fill="url(#linear-gradient-42)"/>
    <g id="Group_8806" data-name="Group 8806" transform="translate(604.741 526.747)">
      <path id="Path_1756" data-name="Path 1756" d="M708.66,691.358V689.23h.358v2.128Z" transform="translate(-708.66 -689.221)" fill="url(#linear-gradient-43)"/>
      <path id="Path_1757" data-name="Path 1757" d="M719.062,691.358l-1.134-1.526v1.526h-.358V689.23h.353l1.139,1.53v-1.53h.353v2.128Z" transform="translate(-716.044 -689.221)" fill="url(#linear-gradient-44)"/>
      <path id="Path_1758" data-name="Path 1758" d="M736.024,689.23a1.065,1.065,0,1,1-.01,2.128h-.863V689.23Zm-.512,1.806h.522a.713.713,0,0,0,.73-.738.726.726,0,0,0-.745-.745h-.507Z" transform="translate(-730.612 -689.221)" fill="url(#linear-gradient-45)"/>
      <path id="Path_1759" data-name="Path 1759" d="M752.81,689.544v.574h1.04v.322h-1.04v.586h1.2v.322H752.45V689.22h1.519v.322h-1.16Z" transform="translate(-744.949 -689.213)" fill="url(#linear-gradient-46)"/>
      <path id="Path_1760" data-name="Path 1760" d="M768.488,689.23c.534,0,.841.264.841.726,0,.48-.307.761-.841.761H768v.641h-.358V689.23Zm-.49,1.165h.474c.329,0,.514-.141.514-.428s-.185-.413-.514-.413H768Z" transform="translate(-757.537 -689.221)" fill="url(#linear-gradient-47)"/>
      <path id="Path_1761" data-name="Path 1761" d="M783.47,689.544v.574h1.04v.322h-1.04v.586h1.2v.322H783.11V689.22h1.519v.322h-1.16Z" transform="translate(-770.357 -689.213)" fill="url(#linear-gradient-48)"/>
      <path id="Path_1762" data-name="Path 1762" d="M799.792,691.358l-1.134-1.526v1.526H798.3V689.23h.353l1.139,1.53v-1.53h.353v2.128Z" transform="translate(-782.945 -689.221)" fill="url(#linear-gradient-49)"/>
      <path id="Path_1763" data-name="Path 1763" d="M816.764,689.23a1.065,1.065,0,1,1-.01,2.128h-.863V689.23Zm-.514,1.806h.522a.713.713,0,0,0,.73-.738.726.726,0,0,0-.745-.745h-.507Z" transform="translate(-797.521 -689.221)" fill="url(#linear-gradient-49)"/>
      <path id="Path_1764" data-name="Path 1764" d="M833.54,689.544v.574h1.04v.322h-1.04v.586h1.2v.322H833.18V689.22h1.52v.322h-1.16Z" transform="translate(-811.85 -689.213)" fill="url(#linear-gradient-51)"/>
      <path id="Path_1765" data-name="Path 1765" d="M849.862,691.358l-1.134-1.526v1.526h-.358V689.23h.353l1.139,1.53v-1.53h.353v2.128Z" transform="translate(-824.438 -689.221)" fill="url(#linear-gradient-44)"/>
      <path id="Path_1766" data-name="Path 1766" d="M865.52,689.552v1.806h-.358v-1.806h-.671v-.322H866.2v.322Z" transform="translate(-837.796 -689.221)" fill="url(#linear-gradient-53)"/>
      <path id="Path_1767" data-name="Path 1767" d="M888.25,689.544v.574h1.04v.322h-1.04v.586h1.2v.322H887.89V689.22h1.519v.322h-1.16Z" transform="translate(-857.188 -689.213)" fill="url(#linear-gradient-54)"/>
      <path id="Path_1768" data-name="Path 1768" d="M904.572,691.358l-1.134-1.526v1.526h-.358V689.23h.353l1.139,1.53v-1.53h.353v2.128Z" transform="translate(-869.776 -689.221)" fill="url(#linear-gradient-55)"/>
      <path id="Path_1769" data-name="Path 1769" d="M921.03,689.544v.574h1.04v.322h-1.04v.586h1.2v.322H920.67V689.22h1.519v.322h-1.16Z" transform="translate(-884.353 -689.213)" fill="url(#linear-gradient-56)"/>
      <path id="Path_1770" data-name="Path 1770" d="M936.811,690.714a.884.884,0,0,1-.1,0h-.505v.641h-.358V689.23h.863c.545,0,.857.264.857.726a.683.683,0,0,1-.44.69l.478.711H937.2Zm-.1-.319c.329,0,.517-.141.517-.428s-.188-.413-.517-.413h-.505v.843h.505Z" transform="translate(-896.932 -689.221)" fill="url(#linear-gradient-57)"/>
      <path id="Path_1771" data-name="Path 1771" d="M953.136,690.271v.785a1.44,1.44,0,0,1-.827.276,1.077,1.077,0,1,1,.021-2.152,1.271,1.271,0,0,1,.817.3l-.2.264a.923.923,0,0,0-.613-.243.756.756,0,1,0,0,1.511,1,1,0,0,0,.49-.146v-.593Z" transform="translate(-909.644 -689.18)" fill="url(#linear-gradient-58)"/>
      <path id="Path_1772" data-name="Path 1772" d="M968.589,691.358h-.356v-.7l-.793-1.432h.361l.608,1.036.6-1.036h.365l-.781,1.42Z" transform="translate(-923.111 -689.221)" fill="url(#linear-gradient-49)"/>
    </g>
  </g>
</svg>
