<svg id="jasolar" xmlns="http://www.w3.org/2000/svg" width="203.812" height="36" viewBox="0 0 203.812 36">
  <g id="jasolar-2" data-name="jasolar" transform="translate(-138.4 -0.1)">
    <path id="Path_1711" data-name="Path 1711" d="M566.62,53.008a37.594,37.594,0,0,0-5.875-1.714c-2.843-.648-4.62-1.275-5.289-1.9a3,3,0,0,1-1.024-2.362,3.537,3.537,0,0,1,1.463-2.843,7.41,7.41,0,0,1,4.641-1.171,7.12,7.12,0,0,1,4.62,1.3A5.484,5.484,0,0,1,567,48.137l3.387-.272a8.226,8.226,0,0,0-1.3-4.2,7.49,7.49,0,0,0-3.47-2.8,13.473,13.473,0,0,0-5.227-.962,12.563,12.563,0,0,0-4.871.92,7.173,7.173,0,0,0-3.345,2.676,6.925,6.925,0,0,0-1.15,3.784,6.047,6.047,0,0,0,.941,3.324,7.282,7.282,0,0,0,2.843,2.488,24.077,24.077,0,0,0,5.122,1.672,47.42,47.42,0,0,1,4.725,1.3,5.263,5.263,0,0,1,2.383,1.568,3.514,3.514,0,0,1,.732,2.2,3.879,3.879,0,0,1-.753,2.3,4.9,4.9,0,0,1-2.3,1.652,9.811,9.811,0,0,1-3.554.606,10.2,10.2,0,0,1-4.077-.794,5.982,5.982,0,0,1-2.676-2.07,7.429,7.429,0,0,1-1.087-3.3L550,58.506a8.972,8.972,0,0,0,1.463,4.787,8.423,8.423,0,0,0,3.826,3.178,15.5,15.5,0,0,0,6.042,1.045,12.254,12.254,0,0,0,5.122-1.045,8.2,8.2,0,0,0,3.491-2.927,7.225,7.225,0,0,0,1.213-4.014,6.723,6.723,0,0,0-1.108-3.8,8.235,8.235,0,0,0-3.429-2.718M603.331,40.36h-3.638V67.078h16.62V63.419H603.331Zm24.481,0L617.9,67.078h3.742l2.76-8.07H635.84l2.969,8.07h4.014L632.286,40.36Zm-2.425,15.763,4.537-13.275,4.871,13.275Zm37.756,3.7a40.03,40.03,0,0,0-2.488-3.533,6.058,6.058,0,0,0-1.714-1.443,7.218,7.218,0,0,0,6.669-7.171,7.7,7.7,0,0,0-1.108-4.035,5.908,5.908,0,0,0-2.948-2.551,15.645,15.645,0,0,0-5.415-.732H644.328V67.078h3.638V55.224h3.972a10.823,10.823,0,0,1,1.965.125,5.2,5.2,0,0,1,1.61.711,7.979,7.979,0,0,1,1.777,1.8c.669.857,1.526,2.07,2.55,3.679l3.512,5.561h4.411Zm-7.735-7.652h-7.463V43.329h8.321a6.3,6.3,0,0,1,4.328,1.233,3.988,3.988,0,0,1,1.38,3.115,4.311,4.311,0,0,1-.711,2.4,4.123,4.123,0,0,1-2.07,1.61,12.065,12.065,0,0,1-3.784.481M584.808,39.9c-7.192,0-11.122,4.244-12.4,9.93a21.306,21.306,0,0,0-.46,3.847,21.777,21.777,0,0,0,.5,4.139c1.359,5.582,5.1,9.721,12.355,9.721S595.3,63.8,596.934,58.653a17.71,17.71,0,0,0,.753-4.913,19.924,19.924,0,0,0-.523-4.118c-1.359-5.582-5-9.721-12.355-9.721m8.906,16.808c-.836,4.453-3.951,7.819-8.906,7.819-4.85,0-7.756-3.073-8.781-7.254a15.63,15.63,0,0,1-.418-3.847,17.862,17.862,0,0,1,.355-2.948c.941-4.286,3.763-7.484,8.843-7.484,5.017,0,7.693,2.99,8.76,7.066a18.731,18.731,0,0,1,.46,3.408,18.913,18.913,0,0,1-.314,3.24" transform="translate(-325.551 -31.479)" fill="#050052"/>
    <path id="Path_1712" data-name="Path 1712" d="M326.134,3.7h-.021C324.9,1.48,323.186.1,321.3.1c-1.861,0-3.554,1.338-4.767,3.512l-.021.021L297.2,36.079h8.007L321.3,9.006l6.439,10.829h-9.889l-3.679,6.188h17.247l6,10.077h7.986Z" transform="translate(-125.601 0)" fill="#00479d"/>
    <path id="Path_1713" data-name="Path 1713" d="M170.2,20.514c0,5.77-1.714,9.972-5.143,12.648-3.052,2.3-7.568,3.449-13.589,3.449H138.4V30.361h13.087c4.056,0,7.045-.606,8.969-1.84,2.341-1.547,3.512-4.2,3.512-8.028V.8h6.251V20.514Z" transform="translate(0 -0.554)" fill="#00479d"/>
  </g>
</svg>
