<svg xmlns="http://www.w3.org/2000/svg" xmlns:xlink="http://www.w3.org/1999/xlink" width="381" height="321" viewBox="0 0 381 321"><defs><linearGradient id="a" x1="0.5" y1="1" x2="0.5" gradientUnits="objectBoundingBox"><stop offset="0" stop-color="gray" stop-opacity="0.251"/><stop offset="0.54" stop-color="gray" stop-opacity="0.122"/><stop offset="1" stop-color="gray" stop-opacity="0.102"/></linearGradient><linearGradient id="c" x1="0.5" y1="1" x2="0.5" gradientUnits="objectBoundingBox"><stop offset="0" stop-opacity="0.122"/><stop offset="0.55" stop-opacity="0.09"/><stop offset="1" stop-opacity="0.02"/></linearGradient><linearGradient id="m" x1="0" y1="0.5" x2="1" y2="0.5" xlink:href="#c"/><linearGradient id="s" x1="0" y1="0.5" x2="1" y2="0.5" xlink:href="#a"/><linearGradient id="u" xlink:href="#a"/></defs><rect width="321" height="321" transform="translate(30)" fill="#f07527" opacity="0.2"/><rect width="223.843" height="261.37" transform="translate(78.565 29.956)" fill="#f07527" opacity="0.5"/><rect width="120" height="231" transform="translate(261 46)" fill="url(#a)"/><rect width="120" height="230" transform="translate(0 47)" fill="url(#a)"/><rect width="112" height="222" transform="translate(265 50)" fill="#f07527"/><rect width="112" height="222" transform="translate(116 272) rotate(180)" fill="#f07527"/><rect width="75" height="13" transform="translate(22 70)" fill="url(#c)"/><rect width="75" height="14" transform="translate(284 90)" fill="url(#c)"/><rect width="75" height="14" transform="translate(284 111)" fill="url(#c)"/><rect width="75" height="13" transform="translate(284 133)" fill="url(#c)"/><rect width="75" height="13" transform="translate(284 154)" fill="url(#c)"/><rect width="75" height="13" transform="translate(284 175)" fill="url(#c)"/><rect width="75" height="13" transform="translate(284 196)" fill="url(#c)"/><rect width="75" height="13" transform="translate(284 217)" fill="url(#c)"/><rect width="75" height="13" transform="translate(284 238)" fill="url(#c)"/><rect width="75" height="13" transform="translate(284 70)" fill="url(#c)"/><rect width="75" height="14" transform="translate(22 91)" fill="url(#m)"/><rect width="75" height="14" transform="translate(22 112)" fill="url(#m)"/><rect width="75" height="13" transform="translate(22 133)" fill="url(#m)"/><rect width="75" height="13" transform="translate(22 154)" fill="url(#m)"/><rect width="75" height="13" transform="translate(22 175)" fill="url(#m)"/><rect width="72" height="10" transform="translate(24 72)" fill="#fff"/><rect width="71.981" height="10.534" transform="translate(23.921 92.171)" fill="#fff"/><rect width="71.981" height="10.534" transform="translate(23.921 113.238)" fill="#fff"/><rect width="71.981" height="10.534" transform="translate(23.921 134.306)" fill="#fff"/><rect width="71.981" height="10.534" transform="translate(23.921 155.374)" fill="#fff"/><rect width="71.981" height="10.534" transform="translate(23.921 176.441)" fill="#fff"/><rect width="75" height="13" transform="translate(22 196)" fill="url(#m)"/><rect width="71.981" height="10.534" transform="translate(23.921 197.509)" fill="#fff"/><rect width="71.981" height="10.534" transform="translate(23.921 197.509)" fill="#fff"/><rect width="71.981" height="10.534" transform="translate(23.921 218.576)" fill="#fff"/><rect width="71.981" height="10.534" transform="translate(23.921 239.644)" fill="#fff"/><rect width="72" height="11" transform="translate(285 71)" fill="#fff"/><rect width="72" height="11" transform="translate(285 92)" fill="#fff"/><rect width="72" height="11" transform="translate(285 113)" fill="#fff"/><rect width="72" height="11" transform="translate(285 134)" fill="#fff"/><rect width="72" height="11" transform="translate(285 155)" fill="#fff"/><rect width="72" height="11" transform="translate(285 176)" fill="#fff"/><rect width="72" height="10" transform="translate(285 198)" fill="#fff"/><rect width="72" height="10" transform="translate(285 219)" fill="#fff"/><rect width="72" height="10" transform="translate(285 240)" fill="#fff"/><rect width="265" height="17" transform="translate(58 283)" fill="url(#s)"/><rect width="261" height="13" transform="translate(60 285)" fill="#f07527"/><rect width="264" height="17" transform="translate(59 22)" fill="url(#a)"/><rect width="261" height="13" transform="translate(60 23)" fill="#f07527"/><rect width="128" height="222" transform="translate(127 50)" fill="#263238" opacity="0.5"/><path d="M550.805,411.057c3.072,4.117-1.527,8.98-1.527,8.98l.773.268c-1.137,1.26-5.627,6.944-22.937,32.655-22.165,32.918-52.033,41.13-52.033,41.13h0a36.867,36.867,0,0,0-12.171-6.281V484.7a36.43,36.43,0,0,0,24.272-23.473,37.343,37.343,0,0,0,4.012-16.872c0-21.068-17.455-38.159-38.984-38.159s-38.984,17.087-38.984,38.159a37.342,37.342,0,0,0,4.012,16.872A36.429,36.429,0,0,0,441.508,484.7v3.107a36.867,36.867,0,0,0-12.171,6.281h0s-29.881-8.221-52.046-41.139c-17.311-25.711-21.8-31.4-22.937-32.655l.772-.268s-4.587-4.863-1.527-8.98-20.256-8.98-17.583,0,6.114,13.47,6.114,13.47,48.807,76.976,74.285,89.7a35.3,35.3,0,0,0-.9,7.953v14.967h73.377V522.166a35.3,35.3,0,0,0-.9-7.953c25.457-12.728,74.285-89.691,74.285-89.691s3.441-4.49,6.114-13.47S547.746,406.94,550.805,411.057Z" transform="translate(-261.275 -264.878)" fill="url(#u)"/><circle cx="37.334" cy="37.334" r="37.334" transform="translate(153.592 144.142)" fill="#263238"/><circle cx="35.139" cy="35.139" r="35.139" transform="translate(155.786 152.196)" fill="#f8c198"/><circle cx="4.393" cy="4.393" r="4.393" transform="translate(172.623 175.252)" fill="#263238"/><circle cx="4.393" cy="4.393" r="4.393" transform="translate(201.174 175.252)" fill="#263238"/><path d="M598.147,544.723c0,2.633-4.587,6.957-10.248,6.957s-10.249-4.323-10.249-6.957,4.587-2.563,10.249-2.563S598.147,542.089,598.147,544.723Z" transform="translate(-396.973 -341.289)" fill="#fff"/><circle cx="1.466" cy="1.466" r="1.466" transform="translate(176.648 178.179)" fill="#fff"/><circle cx="1.466" cy="1.466" r="1.466" transform="translate(205.563 178.179)" fill="#fff"/><path d="M580.017,440.436a4.536,4.536,0,0,1-4.292-3.99,5.267,5.267,0,0,1,3.072-5.157,1.5,1.5,0,0,1,.645-.167c.737,0,1.1.878,1.339,1.576a8.808,8.808,0,0,0,4.1,5.267c2.054,1,4.924.487,6.009-1.523a5.821,5.821,0,0,1-2.458-8.054c.654-1.04,1.672-1.922,1.879-3.134.377-2.195-2.028-3.792-4.156-4.451-6.145-1.9-27.563-2.111-28.744,7.058C556.171,437.534,573.271,441.717,580.017,440.436Z" transform="translate(-385.58 -272.606)" fill="#263238"/><ellipse cx="2.195" cy="6.224" rx="2.195" ry="6.224" transform="matrix(0.93, -0.367, 0.367, 0.93, 152.92, 182.726)" fill="#f8c198"/><ellipse cx="6.224" cy="2.195" rx="6.224" ry="2.195" transform="matrix(0.367, -0.93, 0.93, 0.367, 220.272, 192.67)" fill="#f8c198"/><path d="M645.015,516.1s28.6-8.032,49.834-40.243,22.327-32.3,22.327-32.3l11.346,4.481s-52.7,84.92-75.4,89.313S645.015,516.1,645.015,516.1Z" transform="translate(-432.184 -285.965)" fill="#ff9800"/><path d="M812.83,426.213s4.389-4.758,1.466-8.778,19.4-8.778,16.836,0-5.855,13.167-5.855,13.167Z" transform="translate(-528.931 -268.527)" fill="#f8c198"/><path d="M444.337,516.1s-28.6-8.032-49.834-40.243-22.327-32.3-22.327-32.3l-11.346,4.481s52.709,84.92,75.4,89.313S444.337,516.1,444.337,516.1Z" transform="translate(-275.317 -285.965)" fill="#ff9800"/><path d="M365.51,426.213s-4.389-4.758-1.466-8.778-19.4-8.778-16.837,0,5.855,13.167,5.855,13.167Z" transform="translate(-267.559 -268.527)" fill="#f8c198"/><g transform="translate(172.473 149.681)" opacity="0.2"><path d="M624.912,426.294c-.211,1.211-1.229,2.089-1.879,3.134a5.889,5.889,0,0,0,1.457,7.461,5.613,5.613,0,0,1,.373-4.889c.654-1.04,1.672-1.922,1.879-3.134a3.439,3.439,0,0,0-1.813-3.336,2.634,2.634,0,0,1-.018.764Z" transform="translate(-594.483 -425.53)" fill="#fff"/><path d="M600.486,443.222c-.14-.329-.272-.663-.386-1-.237-.7-.6-1.554-1.339-1.576a1.5,1.5,0,0,0-.645.167,5.267,5.267,0,0,0-3.072,5.157,4.621,4.621,0,0,0,1.962,3.226,4.117,4.117,0,0,1-.132-.663,5.267,5.267,0,0,1,3.072-5.157A1.7,1.7,0,0,1,600.486,443.222Z" transform="translate(-579.199 -434.014)" fill="#fff"/><path d="M577.153,454.495c-5.337.224-13.949-1.813-18.193-6.145,3.169,6.742,16.262,9.564,21.945,8.48A4.424,4.424,0,0,1,577.153,454.495Z" transform="translate(-558.96 -438.334)" fill="#fff"/><path d="M619.45,453.835a4.83,4.83,0,0,1-5.6.93,6.382,6.382,0,0,1-1.624-1.146,7.83,7.83,0,0,0,3.454,3.7c2.054,1,4.925.487,6.009-1.523a5.214,5.214,0,0,1-2.243-1.966Z" transform="translate(-588.849 -441.291)" fill="#fff"/></g><path d="M736.337,453.237s-52.708,84.92-75.426,89.314a26.477,26.477,0,0,1-3.981.487,23.283,23.283,0,0,0,5.447-.487c22.7-4.389,75.4-89.314,75.4-89.314l-1.176-.417A4.894,4.894,0,0,1,736.337,453.237Z" transform="translate(-441.457 -291.161)" fill="#fff" opacity="0.2"/><path d="M362.3,453.237s52.709,84.92,75.426,89.314a26.477,26.477,0,0,0,3.981.487,23.283,23.283,0,0,1-5.447-.487c-22.7-4.389-75.4-89.314-75.4-89.314l1.176-.417A4.916,4.916,0,0,0,362.3,453.237Z" transform="translate(-275.334 -291.161)" fill="#fff" opacity="0.2"/><path d="M390.079,506.88h0a35.139,35.139,0,0,1,35.139,35.139v14.642H354.94V542.019A35.139,35.139,0,0,1,390.079,506.88Z" transform="translate(-199.154 -284.406)" fill="#ff9800"/><path d="M596.931,591.8h0a35.559,35.559,0,0,0-3.832.207c.444,0,.843-.027,1.269-.027h0a35.139,35.139,0,0,1,35.139,35.139v14.458h2.563V626.939A35.139,35.139,0,0,0,596.931,591.8Z" transform="translate(-405.642 -369.142)" fill="#fff" opacity="0.2"/><path d="M555.249,591.8h0a35.56,35.56,0,0,1,3.832.207c-.444,0-.843-.027-1.269-.027h0a35.139,35.139,0,0,0-35.139,35.139v14.458H520.11V626.939A35.139,35.139,0,0,1,555.249,591.8Z" transform="translate(-364.688 -369.142)" fill="#fff" opacity="0.2"/><rect width="20.497" height="24.706" rx="10.249" transform="translate(180.677 212.774)" fill="#f8c198"/></svg>