<svg id="Layer_1" data-name="Layer 1" xmlns="http://www.w3.org/2000/svg" width="249.177" height="36.337" viewBox="0 0 249.177 36.337">
  <g id="Group_8760" data-name="Group 8760">
    <path id="Path_1560" data-name="Path 1560" d="M0-23.792a4.031,4.031,0,0,1,4.251-4.125,4.415,4.415,0,0,1,2.628.755l-.548.936a3.245,3.245,0,0,0-1.989-.595A2.9,2.9,0,0,0,1.211-23.8a2.9,2.9,0,0,0,3.13,3.028,3.442,3.442,0,0,0,2-.561l.537.927a4.42,4.42,0,0,1-2.628.731A4.01,4.01,0,0,1,0-23.792" transform="translate(80.115 56.014)" fill="#191919"/>
    <path id="Path_1561" data-name="Path 1561" d="M-41.451-23.792a2.955,2.955,0,0,0-2.983-3.04,2.974,2.974,0,0,0-3,3.04,2.937,2.937,0,0,0,3,3.029,2.919,2.919,0,0,0,2.983-3.029m-7.187,0a4.072,4.072,0,0,1,4.2-4.125,4.047,4.047,0,0,1,4.183,4.125,4.03,4.03,0,0,1-4.183,4.114,4.056,4.056,0,0,1-4.2-4.114" transform="translate(137.432 56.014)" fill="#191919"/>
    <path id="Path_1562" data-name="Path 1562" d="M-41.514-46.327l-.138-5.61-2.525,4.479h-.766l-2.456-4.5-.148,5.633h-1.165l.3-8.033h.766l3.086,5.508,3.177-5.508h.754l.286,8.033Z" transform="translate(148.53 82.561)" fill="#191919"/>
    <path id="Path_1563" data-name="Path 1563" d="M-27.019-16.017a1.776,1.776,0,0,0-2.011-1.726h-1.5v3.44h1.5c1.223,0,2.011-.674,2.011-1.714m1.223.011c0,1.771-1.337,2.754-3.222,2.754l-1.509.011v2.48H-31.7v-8.033h2.73c1.852,0,3.178,1.029,3.178,2.788" transform="translate(143.08 46.995)" fill="#191919"/>
    <path id="Path_1564" data-name="Path 1564" d="M-41.45-23.792a2.955,2.955,0,0,0-2.982-3.04,2.974,2.974,0,0,0-3,3.04,2.937,2.937,0,0,0,3,3.029,2.919,2.919,0,0,0,2.982-3.029m-7.187,0a4.072,4.072,0,0,1,4.2-4.125,4.047,4.047,0,0,1,4.183,4.125,4.03,4.03,0,0,1-4.183,4.114,4.056,4.056,0,0,1-4.2-4.114" transform="translate(168.082 56.014)" fill="#191919"/>
    <path id="Path_1565" data-name="Path 1565" d="M0-42.376l.606-.96a3.816,3.816,0,0,0,2.366.812c.925,0,1.576-.434,1.576-1.235,0-.765-.5-1.154-1.8-1.474C1.269-45.61.32-46.18.32-47.506c0-1.3,1.132-2.218,2.72-2.218a3.869,3.869,0,0,1,2.56.777l-.56.892a3.082,3.082,0,0,0-2-.628c-.9,0-1.531.4-1.531,1.119s.582.983,1.725,1.28c1.566.412,2.5,1.017,2.5,2.434,0,1.5-1.189,2.366-2.753,2.366A4.826,4.826,0,0,1,0-42.376" transform="translate(129.83 77.821)" fill="#191919"/>
    <path id="Path_1566" data-name="Path 1566" d="M-38.223-6.06h-2.7V.922h-1.189V-6.06h-2.743V-7.111h6.628Z" transform="translate(182.414 35.312)" fill="#191919"/>
    <path id="Path_1567" data-name="Path 1567" d="M-13.506-30.713h3.051l-1.52-3.68Zm3.463,1.016h-3.863l-.7,1.691h-1.245l3.45-8.033h.868L-8.1-28.006H-9.358Z" transform="translate(160.586 64.24)" fill="#191919"/>
    <path id="Path_1568" data-name="Path 1568" d="M-27.607-32.685c0-.663-.514-1.211-1.725-1.211H-31.24v2.572h1.862c1.132,0,1.771-.515,1.771-1.361m-2.011-4.661H-31.24v2.467h1.862c.971,0,1.52-.445,1.52-1.176,0-.777-.537-1.291-1.76-1.291m3.188,4.73c0,1.429-.983,2.3-2.925,2.3h-3.038v-8.033h2.8c2.056,0,2.913.892,2.913,2.114a1.912,1.912,0,0,1-1.177,1.76,1.944,1.944,0,0,1,1.428,1.862" transform="translate(187.202 66.554)" fill="#191919"/>
    <path id="Path_1569" data-name="Path 1569" d="M-30.713-40.331v1.04h-5.326v-8.033h1.178v6.993Z" transform="translate(199.701 75.525)" fill="#191919"/>
    <path id="Path_1570" data-name="Path 1570" d="M-30.907-40.331v1.04h-5.359v-8.033h5.348v1.051h-4.17v2.389h3.657v1.051h-3.657v2.5Z" transform="translate(207.6 75.525)" fill="#191919"/>
    <path id="Path_1571" data-name="Path 1571" d="M0-42.376l.606-.96a3.815,3.815,0,0,0,2.364.812c.927,0,1.577-.434,1.577-1.235,0-.765-.5-1.154-1.8-1.474C1.267-45.61.32-46.18.32-47.506c0-1.3,1.13-2.218,2.72-2.218a3.869,3.869,0,0,1,2.56.777l-.561.892a3.075,3.075,0,0,0-2-.628c-.9,0-1.532.4-1.532,1.119s.583.983,1.726,1.28c1.564.412,2.5,1.017,2.5,2.434,0,1.5-1.189,2.366-2.753,2.366A4.823,4.823,0,0,1,0-42.376" transform="translate(182.46 77.821)" fill="#191919"/>
    <path id="Path_1572" data-name="Path 1572" d="M-41.451-23.792a2.955,2.955,0,0,0-2.982-3.04,2.975,2.975,0,0,0-3.006,3.04,2.938,2.938,0,0,0,3.006,3.029,2.919,2.919,0,0,0,2.982-3.029m-7.187,0a4.072,4.072,0,0,1,4.205-4.125,4.046,4.046,0,0,1,4.181,4.125,4.03,4.03,0,0,1-4.181,4.114,4.056,4.056,0,0,1-4.205-4.114" transform="translate(239.035 56.014)" fill="#191919"/>
    <path id="Path_1573" data-name="Path 1573" d="M-30.713-40.331v1.04h-5.326v-8.033h1.178v6.993Z" transform="translate(237.622 75.525)" fill="#191919"/>
    <path id="Path_1574" data-name="Path 1574" d="M0-27.019V-31.7H1.2v4.777A2.117,2.117,0,0,0,3.45-24.653a2.1,2.1,0,0,0,2.218-2.274V-31.7H6.844v4.685a3.154,3.154,0,0,1-3.405,3.451A3.173,3.173,0,0,1,0-27.019" transform="translate(208.929 59.905)" fill="#191919"/>
    <path id="Path_1575" data-name="Path 1575" d="M-38.223-6.06h-2.7V.922h-1.189V-6.06h-2.743V-7.111h6.628Z" transform="translate(262.924 35.312)" fill="#191919"/>
    <path id="Path_1576" data-name="Path 1576" d="M2247.692-516.113h1.178v8.033h-1.178Z" transform="translate(-2020.625 544.314)" fill="#191919"/>
    <path id="Path_1577" data-name="Path 1577" d="M-41.451-23.792a2.955,2.955,0,0,0-2.982-3.04,2.975,2.975,0,0,0-3.006,3.04,2.938,2.938,0,0,0,3.006,3.029,2.919,2.919,0,0,0,2.982-3.029m-7.187,0a4.072,4.072,0,0,1,4.205-4.125,4.046,4.046,0,0,1,4.181,4.125,4.03,4.03,0,0,1-4.181,4.114,4.057,4.057,0,0,1-4.205-4.114" transform="translate(279.681 56.014)" fill="#191919"/>
    <path id="Path_1578" data-name="Path 1578" d="M-40.066-.459V7.666h-.687l-5.107-6.022v5.93h-1.154V-.539h.7l5.086,6.022V-.459Z" transform="translate(289.243 28.66)" fill="#191919"/>
    <path id="Path_1579" data-name="Path 1579" d="M-25.267-127.086h-4.381v-22.037h3.976L-13-134v-15.124h4.381v22.037h-4.041l-12.61-14.962Z" transform="translate(79.099 149.447)" fill="#191919"/>
    <path id="Path_1580" data-name="Path 1580" d="M-43.525-82.069H-35.8l-3.847-9.654Zm8.99,3.49H-44.759l-1.64,4.316h-4.674L-42.179-96.3h5.031l8.91,22.037h-4.673Z" transform="translate(124.962 96.624)" fill="#191919"/>
    <path id="Path_1581" data-name="Path 1581" d="M-39.768-22.455h-6.9v-3.894h18.143v3.894H-35.4V-4.312h-4.366Z" transform="translate(142.356 26.673)" fill="#191919"/>
    <path id="Path_1582" data-name="Path 1582" d="M-25.267-21.9v7.968h5.34a3.839,3.839,0,0,0,4.041-3.959A3.781,3.781,0,0,0-19.927-21.9Zm5.1,11.748h-5.1v6.492h-4.381V-25.693h10.224c4.446,0,8.05,2.823,8.05,7.789a7.56,7.56,0,0,1-4.3,6.929l5.842,7.3h-5.29Z" transform="translate(147.006 26.017)" fill="#191919"/>
    <path id="Path_1583" data-name="Path 1583" d="M-43.525-82.069H-35.8l-3.847-9.654Zm8.989,3.49H-44.759l-1.64,4.316h-4.673L-42.179-96.3h5.031l8.91,22.037h-4.673Z" transform="translate(190.81 96.624)" fill="#191919"/>
    <path id="Path_1584" data-name="Path 1584" d="M-25.266-21.9v7.968h5.323a3.834,3.834,0,0,0,4.024-3.959A3.776,3.776,0,0,0-19.943-21.9Zm0,11.748v6.492h-4.381V-25.693H-19.44c4.446,0,8.033,2.807,8.033,7.806,0,4.722-3.587,7.739-8.033,7.739Z" transform="translate(195.631 26.017)" fill="#191919"/>
    <path id="Path_1585" data-name="Path 1585" d="M-93.683-127.086h-16.245v-22.037h4.381v18.257h11.863Z" transform="translate(298.15 149.447)" fill="#191919"/>
    <path id="Path_1586" data-name="Path 1586" d="M-43.525-82.069H-35.8l-3.847-9.654Zm8.99,3.49H-44.759l-1.64,4.316h-4.674L-42.179-96.3h5.031l8.91,22.037h-4.673Z" transform="translate(258.008 96.624)" fill="#191919"/>
    <path id="Path_1587" data-name="Path 1587" d="M-88.821-7.954l-.374,3.894a15.278,15.278,0,0,0-6.377-1.411c-2.386,0-4.091.73-4.091,2.546,0,1.835,1.558,2.159,3.067,2.613l3.181.942c3.635,1.07,5.712,2.628,5.712,6,0,3.91-3.326,6.717-8.357,6.717a20.176,20.176,0,0,1-8.163-1.623l.357-3.91a18.612,18.612,0,0,0,7.417,1.64c2.321,0,4.171-.811,4.171-2.613,0-1.4-.828-2.012-2.695-2.515l-3.488-.942c-2.808-.763-5.762-2.288-5.762-5.956,0-4.072,3.2-6.765,8.342-6.765a16.857,16.857,0,0,1,7.059,1.379" transform="translate(336.733 9.333)" fill="#191919"/>
    <path id="Path_1588" data-name="Path 1588" d="M-327.7-10.5l-4.436,7.673a.416.416,0,0,1-.36.208h-14.258a.416.416,0,0,1-.36-.624l4.19-7.257a.416.416,0,0,1,.72,0l2.246,3.886a.416.416,0,0,0,.36.208h4.918a.416.416,0,0,0,.36-.208l2.485-4.3a.416.416,0,0,1,.36-.208h3.415a.416.416,0,0,1,.36.624" transform="translate(351.843 34.174)" fill="#191919"/>
    <path id="Path_1589" data-name="Path 1589" d="M-7.012,0,1.851.005a.416.416,0,0,1,.36.208L9.341,12.561a.416.416,0,0,1-.36.624H.6a.416.416,0,0,1-.36-.623L2.482,8.674a.416.416,0,0,0,0-.416L.023,4a.416.416,0,0,0-.36-.208l-4.968,0a.416.416,0,0,1-.36-.208L-7.372.624A.416.416,0,0,1-7.012,0" transform="translate(26.202 18.372)" fill="#191919"/>
    <path id="Path_1590" data-name="Path 1590" d="M-75.83-347.768l-4.449-7.639a.416.416,0,0,1,0-.417l7.15-12.4a.416.416,0,0,1,.72,0l4.195,7.267a.416.416,0,0,1-.36.623l-4.488,0a.416.416,0,0,0-.36.208l-2.459,4.259a.416.416,0,0,0,0,.416l2.482,4.3a.416.416,0,0,1,0,.416l-1.71,2.961a.416.416,0,0,1-.719,0" transform="translate(92.898 373.106)" fill="#191919"/>
    <path id="Path_1591" data-name="Path 1591" d="M-646.883-555.735a3.769,3.769,0,0,1-3.253,1.878h-8.38a3.768,3.768,0,0,1-3.252-1.876,3.728,3.728,0,0,1-.391-.969l-.56.968a3.769,3.769,0,0,1-3.252,1.877h-14.258a3.768,3.768,0,0,1-3.252-1.876,3.768,3.768,0,0,1,0-3.756l4.191-7.259a3.766,3.766,0,0,1,3.253-1.878,3.746,3.746,0,0,1,.961.126l-.508-.872a3.764,3.764,0,0,1,0-3.783l7.141-12.383a3.765,3.765,0,0,1,3.254-1.88,3.768,3.768,0,0,1,3.251,1.874l4.2,7.27a3.771,3.771,0,0,1,0,3.757,3.733,3.733,0,0,1-.62.8h1.1a3.765,3.765,0,0,1,3.248,1.874l7.131,12.351a3.771,3.771,0,0,1,0,3.756m1.157-4.425-7.132-12.352a5.1,5.1,0,0,0-3.265-2.411,5.118,5.118,0,0,0-.463-4.019l-4.2-7.272a5.107,5.107,0,0,0-4.407-2.541,5.1,5.1,0,0,0-4.411,2.548l-7.138,12.377a5.1,5.1,0,0,0-.484,4.006,5.107,5.107,0,0,0-3.226,2.406l-4.191,7.259a5.11,5.11,0,0,0,0,5.093,5.108,5.108,0,0,0,4.409,2.544h14.258a5.11,5.11,0,0,0,3.727-1.624,5.11,5.11,0,0,0,3.728,1.624h8.38a5.109,5.109,0,0,0,4.41-2.546,5.112,5.112,0,0,0,0-5.092" transform="translate(685.318 588.754)" fill="#191919"/>
    <path id="Path_1592" data-name="Path 1592" d="M-598.573-521.574a1.456,1.456,0,0,1-1.256.726h-8.381a1.457,1.457,0,0,1-1.258-.729,1.352,1.352,0,0,1-.146-.367l-1.378-5.539-3.416,5.908a1.456,1.456,0,0,1-1.256.726h-14.258a1.458,1.458,0,0,1-1.256-.722,1.456,1.456,0,0,1,0-1.452l4.192-7.261a1.451,1.451,0,0,1,1.254-.724,1.416,1.416,0,0,1,.371.049l5.392,1.429-3.315-5.688a1.467,1.467,0,0,1,0-1.474l7.143-12.384a1.453,1.453,0,0,1,1.256-.724,1.449,1.449,0,0,1,1.254.722l4.2,7.266a1.47,1.47,0,0,1,0,1.454,1.5,1.5,0,0,1-.241.308L-613.7-536.1l6.739,0a1.45,1.45,0,0,1,1.252.721l7.131,12.35a1.46,1.46,0,0,1,0,1.451m2.4-2.833-7.132-12.352a4.228,4.228,0,0,0-3.648-2.1h-.145q.033-.054.065-.109a4.237,4.237,0,0,0,0-4.216l-4.2-7.27a4.227,4.227,0,0,0-3.65-2.1,4.221,4.221,0,0,0-3.653,2.11l-7.142,12.381a4.221,4.221,0,0,0,0,4.245l.032.055h-.087a4.22,4.22,0,0,0-3.65,2.11l-4.192,7.258a4.232,4.232,0,0,0,0,4.218,4.236,4.236,0,0,0,3.652,2.106h14.258a4.228,4.228,0,0,0,3.65-2.107l.078-.136q.036.068.075.136a4.228,4.228,0,0,0,3.65,2.107h8.381a4.233,4.233,0,0,0,3.653-2.11,4.243,4.243,0,0,0,0-4.217" transform="translate(635.012 553.44)" fill="#191919"/>
    <path id="Path_1593" data-name="Path 1593" d="M-624.43-470.007l-7.131-12.351a3.769,3.769,0,0,0-3.249-1.874h-1.1a3.724,3.724,0,0,0,.623-.8,3.773,3.773,0,0,0,0-3.756l-4.2-7.27a3.765,3.765,0,0,0-3.251-1.875,3.76,3.76,0,0,0-3.253,1.879l-7.143,12.384a3.759,3.759,0,0,0,0,3.781l.507.874a3.708,3.708,0,0,0-.961-.127,3.759,3.759,0,0,0-3.251,1.879L-661.029-470a3.768,3.768,0,0,0,0,3.756,3.771,3.771,0,0,0,3.253,1.877h14.258a3.768,3.768,0,0,0,3.251-1.877l.56-.968a3.7,3.7,0,0,0,.392.968,3.768,3.768,0,0,0,3.251,1.877h8.381a3.768,3.768,0,0,0,3.253-1.879,3.778,3.778,0,0,0,0-3.756" transform="translate(662.866 499.27)" fill="#fff"/>
    <path id="Path_1594" data-name="Path 1594" d="M-582.455-458.78l-7.13-12.35a2.426,2.426,0,0,0-2.093-1.208l-8.22,0,.918-1.589h3.57a2.427,2.427,0,0,0,2.1-1.209,2.43,2.43,0,0,0,0-2.421l-4.2-7.269a2.427,2.427,0,0,0-2.095-1.208,2.425,2.425,0,0,0-2.1,1.211l-7.144,12.39a2.424,2.424,0,0,0,0,2.436l4.11,7.056h-1.836l-1.787-3.092a2.427,2.427,0,0,0-2.095-1.209,2.426,2.426,0,0,0-2.1,1.21l-4.191,7.259a2.428,2.428,0,0,0,0,2.42,2.427,2.427,0,0,0,2.1,1.209h14.258a2.429,2.429,0,0,0,2.1-1.21l4.118-7.123.93,1.61-1.784,3.094a2.426,2.426,0,0,0,0,2.419,2.427,2.427,0,0,0,2.1,1.209h8.38a2.427,2.427,0,0,0,2.1-1.209,2.429,2.429,0,0,0,0-2.421" transform="translate(619.733 488.711)" fill="#191919"/>
    <path id="Path_1595" data-name="Path 1595" d="M-327.7-10.5l-4.436,7.673a.416.416,0,0,1-.36.208h-14.258a.416.416,0,0,1-.36-.624l4.19-7.257a.416.416,0,0,1,.72,0l2.246,3.886a.416.416,0,0,0,.36.208h4.918a.416.416,0,0,0,.36-.208l2.485-4.3a.416.416,0,0,1,.36-.208h3.415a.416.416,0,0,1,.36.624" transform="translate(351.843 34.174)" fill="#ff9833"/>
    <path id="Path_1596" data-name="Path 1596" d="M-80.725-13.363h0a.222.222,0,0,0-.2.113l-4.19,7.258a.223.223,0,0,0,0,.226.222.222,0,0,0,.2.113h14.259a.228.228,0,0,0,.2-.113l4.436-7.673a.223.223,0,0,0,0-.226.223.223,0,0,0-.2-.114h-3.415a.225.225,0,0,0-.2.112l-2.486,4.3a.606.606,0,0,1-.524.3h-4.918a.605.605,0,0,1-.524-.3l-2.246-3.886a.224.224,0,0,0-.2-.113m10.068,8.089H-84.915a.6.6,0,0,1-.524-.3.6.6,0,0,1,0-.605l4.19-7.258a.6.6,0,0,1,.523-.3h0a.6.6,0,0,1,.524.3l2.246,3.886a.228.228,0,0,0,.2.113h4.918a.228.228,0,0,0,.2-.113l2.486-4.3a.6.6,0,0,1,.523-.3h3.415a.6.6,0,0,1,.524.3.6.6,0,0,1,0,.6l-4.436,7.673a.605.605,0,0,1-.523.3" transform="translate(90.005 37.02)" fill="#191919"/>
    <path id="Path_1597" data-name="Path 1597" d="M-7.012,0,1.851.005a.416.416,0,0,1,.36.208L9.341,12.561a.416.416,0,0,1-.36.624H.6a.416.416,0,0,1-.36-.623L2.482,8.674a.416.416,0,0,0,0-.416L.023,4a.416.416,0,0,0-.36-.208l-4.968,0a.416.416,0,0,1-.36-.208L-7.372.624A.416.416,0,0,1-7.012,0" transform="translate(26.202 18.372)" fill="#edd440"/>
    <path id="Path_1598" data-name="Path 1598" d="M-10.195-6.369a.222.222,0,0,0-.2.113.223.223,0,0,0,0,.226l1.707,2.958a.228.228,0,0,0,.2.114l4.967,0a.606.606,0,0,1,.524.3l2.459,4.26a.607.607,0,0,1,0,.6L-2.779,6.1a.22.22,0,0,0,0,.226.222.222,0,0,0,.2.113H5.8a.227.227,0,0,0,.2-.34L-1.135-6.251a.228.228,0,0,0-.2-.113l-8.863-.005ZM5.8,6.816H-2.583a.6.6,0,0,1-.524-.3.6.6,0,0,1,0-.6L-.864,2.021a.23.23,0,0,0,0-.226l-2.459-4.26a.228.228,0,0,0-.2-.113l-4.967,0a.606.606,0,0,1-.524-.3L-10.718-5.84a.6.6,0,0,1,0-.6.6.6,0,0,1,.524-.3h0l8.862.005a.606.606,0,0,1,.524.3L6.322,5.908a.6.6,0,0,1-.524.907" transform="translate(29.385 24.93)" fill="#191919"/>
    <path id="Path_1599" data-name="Path 1599" d="M-75.83-347.768l-4.449-7.639a.416.416,0,0,1,0-.417l7.15-12.4a.416.416,0,0,1,.72,0l4.195,7.267a.416.416,0,0,1-.36.623l-4.488,0a.416.416,0,0,0-.36.208l-2.459,4.259a.416.416,0,0,0,0,.416l2.482,4.3a.416.416,0,0,1,0,.416l-1.71,2.961a.416.416,0,0,1-.719,0" transform="translate(92.898 373.106)" fill="#73cd2f"/>
    <path id="Path_1600" data-name="Path 1600" d="M-130.509-6.077a.222.222,0,0,0-.2.113l-7.15,12.4a.227.227,0,0,0,0,.227l4.449,7.64a.222.222,0,0,0,.2.112.224.224,0,0,0,.2-.113l1.709-2.961a.228.228,0,0,0,0-.227l-2.482-4.3a.607.607,0,0,1,0-.6l2.459-4.259a.606.606,0,0,1,.524-.3h4.488a.224.224,0,0,0,.2-.114.222.222,0,0,0,0-.226l-4.195-7.267a.222.222,0,0,0-.2-.113m-2.7,20.869a.6.6,0,0,1-.523-.3l-4.449-7.639a.607.607,0,0,1,0-.607l7.15-12.4a.624.624,0,0,1,1.048,0l4.195,7.267a.6.6,0,0,1,0,.6.6.6,0,0,1-.524.3H-130.8a.228.228,0,0,0-.2.113l-2.459,4.259a.228.228,0,0,0,0,.227l2.482,4.3a.606.606,0,0,1,0,.6l-1.709,2.961a.6.6,0,0,1-.523.3Z" transform="translate(150.637 10.943)" fill="#191919"/>
    <path id="Path_1602" data-name="Path 1602" d="M-38.223-6.06h-2.7V.922h-1.189V-6.06h-2.743V-7.111h6.628Z" transform="translate(94.302 35.312)" fill="#191919"/>
    <path id="Path_1603" data-name="Path 1603" d="M-40.6,0V8.033h-1.178V4.513H-46.46v3.52h-1.177V0h1.177V3.463h4.685V0Z" transform="translate(106.081 28.201)" fill="#191919"/>
    <path id="Path_1604" data-name="Path 1604" d="M-30.907-40.331v1.04h-5.359v-8.033h5.347v1.051h-4.17v2.389h3.657v1.051h-3.657v2.5Z" transform="translate(105.063 75.524)" fill="#191919"/>
  </g>
</svg>
