<svg xmlns="http://www.w3.org/2000/svg" width="52.751" height="32.608" viewBox="0 0 52.751 32.608"><g transform="translate(-3363.865 -4035.365)"><g transform="translate(3363.865 4035.365)"><path d="M0-64.437V-36.3H48.276a4.475,4.475,0,0,0,4.475-4.475V-68.912H4.475A4.475,4.475,0,0,0,0-64.437" transform="translate(0 68.912)" fill="#fff"/></g><g transform="translate(3363.865 4035.365)"><path d="M-667.726-240.594c2.872-.184,5.04-.208,6.381-.193V-257.3h-48.276a4.475,4.475,0,0,0-4.475,4.475v26.592A96.366,96.366,0,0,1-688-237.328a106.54,106.54,0,0,1,20.273-3.266" transform="translate(714.096 257.302)" fill="#a0a3bd"/></g><g transform="translate(3365.619 4054.172)"><path d="M-358.856-47.921a94.61,94.61,0,0,0-24.921,10.473h46.522a4.475,4.475,0,0,0,4.475-4.475v-9.318a100.308,100.308,0,0,0-26.076,3.32" transform="translate(383.776 51.249)" fill="#a0a3bd"/></g><g transform="translate(3368.215 4039.825)"><path d="M-77.4-68.358a5.3,5.3,0,0,0-1.5-.837c-.445-.209-1.308-.536-1.321-1.255a.89.89,0,0,1,.955-.85,1.819,1.819,0,0,1,1.36.876l1.282-1.439a3.787,3.787,0,0,0-1.151-.916,3.982,3.982,0,0,0-1.517-.327,3.026,3.026,0,0,0-2.55,1.229,2.656,2.656,0,0,0-.471,1.517,2.6,2.6,0,0,0,1.02,2.066,7.992,7.992,0,0,0,1.334.8,2.871,2.871,0,0,1,1.2.785.912.912,0,0,1,.157.523,1.089,1.089,0,0,1-1.125,1.072,2.442,2.442,0,0,1-1.713-1.072l-1.334,1.465A4.444,4.444,0,0,0-81.3-63.676a4.951,4.951,0,0,0,1.556.262,3.732,3.732,0,0,0,1.687-.392,2.749,2.749,0,0,0,.654-.484,2.758,2.758,0,0,0,.889-2.106,2.41,2.41,0,0,0-.889-1.962" transform="translate(82.773 73.105)" fill="#fff"/></g><g transform="translate(3375.617 4040.073)"><path d="M-105.585,0l-1.228,3.636c-.15.471-.313.942-.464,1.412-.125.445-.251.876-.376,1.321-.063-.262-.125-.523-.2-.785-.163-.562-.351-1.1-.526-1.648L-109.7,0h-1.98l-1.241,9.233h1.842L-110.611,5c.05-.445.1-.889.138-1.334.012-.353.025-.693.025-1.046.075.288.138.562.226.837.1.392.226.772.363,1.151l1.6,4.629h1.2l1.466-4.342c.251-.772.489-1.556.7-2.341,0,.314,0,.628.013.942.025.432.075.863.113,1.295l.526,4.446h1.868L-103.617,0Z" transform="translate(112.917)" fill="#fff"/></g><g transform="translate(3387.157 4040.073)"><path d="M-47.034-80.975c.21-.6.408-1.2.606-1.8.148-.445.4-1.19.495-1.635.037-.183.062-.379.086-.562a9.915,9.915,0,0,0,.569,2.132c.21.615.433,1.242.643,1.87Zm2.177-5.623h-2.017L-50.3-77.366h2.029l.643-1.87H-44l.681,1.87h2.054Z" transform="translate(50.3 86.598)" fill="#fff"/></g></g></svg>