<svg id="Tesla__Inc.-Wordmark-Black-Logo.wine" data-name="Tesla,_Inc.-Wordmark-Black-Logo.wine" xmlns="http://www.w3.org/2000/svg" width="279" height="36" viewBox="0 0 279 36">
  <path id="Tesla__Inc.-Wordmark-Black-Logo.wine-2" data-name="Tesla,_Inc.-Wordmark-Black-Logo.wine" d="M238,14V36h7V22h26V36h7V14H238m6-7h27c3.753-.746,7.213-3.8,8-7H237a9.268,9.268,0,0,0,7,7M217,36a9.6,9.6,0,0,0,6-7H191V0h-7V36h33M132,7h25c3.762-1.093,7.23-3.823,8-7H125V21h32v8H132a13.644,13.644,0,0,0-9,7h41V14H132V7M70,7H97c3.758-.749,7.217-3.793,8-7H63a9.263,9.263,0,0,0,7,7m0,15H97c3.758-.741,7.217-4.791,8-8H63c.778,3.21,3.278,7.259,7,8m0,14H97c3.758-.747,7.217-3.795,8-7H63a9.262,9.262,0,0,0,7,7M0,0A9.4,9.4,0,0,0,7,7H19V36h7V8l1-1H38c3.8-.98,7.2-3.833,8-7H0" fill="#a0a3bd"/>
</svg>
